SplineFontDB: 3.0
FontName: MiladAzad-Regular
FullName: MiladAzad Regular
FamilyName: MiladAzad
Weight: Regular
Copyright: Copyright (c) 2016 Copyright Holder Persian Font Store (info@font-store.ir), with Reserved Font Name "MiladAzad"
UComments: "2015-5-13: Created with FontForge (http://fontforge.org)"
Version: Version:0.0.3;RFB:1.2.5;Building:2016-04-05 21:27:36.530121
FONDName: RITA
ItalicAngle: 0
UnderlinePosition: 500
UnderlineWidth: 59
Ascent: 800
Descent: 500
InvalidEm: 0
sfntRevision: 0x00010000
LayerCount: 2
Layer: 0 0 "Back" 1
Layer: 1 0 "Fore" 0
PreferredKerning: 4
XUID: [1021 828 -1901974348 32649]
StyleMap: 0x0040
FSType: 0
OS2Version: 0
OS2_WeightWidthSlopeOnly: 0
OS2_UseTypoMetrics: 0
CreationTime: 1431477301
ModificationTime: 1459875456
PfmFamily: 33
TTFWeight: 400
TTFWidth: 5
LineGap: 100
VLineGap: 0
Panose: 2 0 5 3 0 0 0 0 0 0
OS2TypoAscent: 800
OS2TypoAOffset: 0
OS2TypoDescent: -500
OS2TypoDOffset: 0
OS2TypoLinegap: 100
OS2WinAscent: 1100
OS2WinAOffset: 0
OS2WinDescent: 700
OS2WinDOffset: 0
HheadAscent: 1100
HheadAOffset: 0
HheadDescent: -700
HheadDOffset: 0
OS2SubXSize: 780
OS2SubYSize: 839
OS2SubXOff: -107
OS2SubYOff: 168
OS2SupXSize: 780
OS2SupYSize: 839
OS2SupXOff: 369
OS2SupYOff: 575
OS2StrikeYSize: 59
OS2StrikeYPos: 310
OS2Vendor: 'RITA'
OS2CodePages: 00000040.00000000
OS2UnicodeRanges: 80002003.80002000.00000008.00000000
MacStyle: 0
Lookup: 4 1 1 "'ccmp' Glyph Composition/Decomposition in Arabic lookup 5" { "'ccmp' Glyph Composition/Decomposition in Arabic lookup 5-1"  } ['ccmp' ('DFLT' <'dflt' > 'arab' <'dflt' > ) ]
Lookup: 1 9 0 "'isol' Isolated Forms in Latin lookup 1" { "'isol' Isolated Forms in Latin lookup 1-1"  } ['isol' ('DFLT' <'dflt' > 'arab' <'dflt' > ) ]
Lookup: 1 9 0 "'fina' Terminal Forms in Arabic lookup 3" { "'fina' Terminal Forms in Arabic lookup 3-1"  } ['fina' ('DFLT' <'dflt' > 'arab' <'dflt' > ) ]

StartChar: _.alef.isol
Encoding: 65536 -1 0
GlifName: _.alef.isol
Width: 250
VWidth: 1304
GlyphClass: 2
Flags: HMW
LayerCount: 2
Fore
SplineSet
64 786 m 1
 143 800 l 1
 186 585 186 421 186 300 c 2
 186 -0 l 1
 106 -0 l 1
 106 300 l 1
 105 423 106 579 64 786 c 1
EndSplineSet
Colour: ffda6b
EndChar

StartChar: _.alef.fina
Encoding: 65537 -1 1
GlifName: _.alef.fina
Width: 284
VWidth: 1304
GlyphClass: 2
Flags: HMW
LayerCount: 2
Fore
SplineSet
64 251 m 2
 64 800 l 1
 144 800 l 1
 144 251 l 2
 144 135 179 100 284 100 c 1
 284 -0 l 1
 112 0 64 85 64 251 c 2
EndSplineSet
Colour: ffda6b
EndChar

StartChar: _.alef_kotah.isol
Encoding: 65538 -1 2
GlifName: _.alef_kotah.isol
Width: 250
VWidth: 1304
GlyphClass: 2
Flags: HMW
LayerCount: 2
Fore
SplineSet
64 615 m 1
 145 630 l 1
 172 480 l 2
 176 457 176 433 177 410 c 0
 183 355 184 303 186 242 c 1
 186 -0 l 1
 103 -0 l 1
 103 68 102 128 102 180 c 0
 102 312 99 424 78 533 c 1
 64 615 l 1
EndSplineSet
Colour: ffda6b
EndChar

StartChar: _.alef_kotah.fina
Encoding: 65539 -1 3
GlifName: _.alef_kotah.fina
Width: 313
VWidth: 1304
GlyphClass: 2
Flags: HMW
LayerCount: 2
Fore
SplineSet
313 49 m 0
 313 26 309 0 288 -0 c 0
 168 0 104 39 78 134 c 0
 69 166 64 204 64 250 c 2
 64 629 l 1
 148 629 l 1
 148 251 l 2
 148 173 164 113 229 104 c 0
 246 100 266 100 288 100 c 0
 309 100 313 72 313 49 c 0
EndSplineSet
Colour: ffda6b
EndChar

StartChar: _.beh.isol
Encoding: 65540 -1 4
GlifName: _.beh.isol
Width: 934
VWidth: 1304
GlyphClass: 2
UnlinkRmOvrlpSave: 1
Flags: HMW
LayerCount: 2
Fore
SplineSet
64 231 m 0
 64 272 76 312 92 351 c 0
 102 378 118 412 132 433 c 1
 185 401 l 1
 160 355 135 291 135 237 c 0
 135 113 312 81 463 80 c 0
 614 80 748 117 782 150 c 1
 782 155 782 161 782 167 c 0
 782 261 772 365 753 457 c 1
 841 474 l 1
 862 383 870 289 870 181 c 0
 870 9 631 -20 462 -20 c 0
 293 -20 64 8 64 231 c 0
EndSplineSet
Colour: ffda6b
EndChar

StartChar: _.beh.fina
Encoding: 65541 -1 5
GlifName: _.beh.fina
Width: 945
VWidth: 1304
GlyphClass: 2
UnlinkRmOvrlpSave: 1
Flags: HMW
LayerCount: 2
Fore
SplineSet
860 358 m 1
 849 293 838 226 817 171 c 1
 824 156 832 144 839 134 c 0
 867 101 906 101 945 100 c 1
 945 -0 l 1
 870 0 810 18 766 82 c 1
 709 22 618 3 533 -8 c 0
 494 -14 446 -16 391 -16 c 0
 272 -16 138 13 84 125 c 0
 70 157 64 189 64 221 c 0
 64 298 100 380 131 433 c 1
 185 402 l 1
 160 356 136 290 136 237 c 0
 136 109 310 85 411 85 c 0
 487 85 629 94 691 140 c 0
 750 185 765 287 782 373 c 1
 860 358 l 1
EndSplineSet
Colour: ffda6b
EndChar

StartChar: _.beh.medi
Encoding: 65542 -1 6
GlifName: _.beh.medi
Width: 470
VWidth: 1304
GlyphClass: 2
UnlinkRmOvrlpSave: 1
Flags: HMW
LayerCount: 2
Fore
SplineSet
-50 49 m 0
 -50 76 -27 100 -1 100 c 1
 -1 101 l 1
 4 101 8 101 13 101 c 0
 111 101 213 103 262 204 c 0
 288 257 298 314 310 373 c 1
 387 358 l 1
 346 168 l 1
 371 110 407 100 470 100 c 1
 470 -0 l 1
 396 0 338 17 294 79 c 1
 232 9 134 0 -1 -0 c 0
 -25 0 -50 24 -50 49 c 0
EndSplineSet
Colour: ffda6b
EndChar

StartChar: _.beh.init
Encoding: 65543 -1 7
GlifName: _.beh.init
Width: 384
VWidth: 1197
GlyphClass: 1
UnlinkRmOvrlpSave: 1
Flags: HMW
LayerCount: 2
Fore
SplineSet
-50 50 m 0
 -49 75 -26 100 -1 100 c 2
 71 100 l 2
 119 100 195 115 231 149 c 1
 231 155 231 162 231 168 c 0
 231 264 222 363 202 457 c 1
 291 473 l 1
 310 386 320 300 320 211 c 0
 320 201 319 191 319 181 c 0
 317 44 188 0 72 -0 c 2
 0 -0 l 1
 -25 1 -50 24 -50 50 c 0
EndSplineSet
Colour: ffda6b
EndChar

StartChar: _.heh.isol
Encoding: 65544 -1 8
GlifName: _.heh.isol
Width: 734
VWidth: 1304
GlyphClass: 1
UnlinkRmOvrlpSave: 1
Flags: HMW
LayerCount: 2
Fore
SplineSet
651 199 m 1
 630 203 609 205 585 205 c 0
 409 205 202 90 150 -105 c 0
 142 -133 139 -164 139 -197 c 0
 139 -217 140 -236 143 -257 c 1
 200 -319 289 -337 382 -337 c 0
 473 -337 567 -320 638 -310 c 1
 649 -400 l 1
 565 -409 466 -423 373 -423 c 0
 208 -423 64 -381 64 -196 c 0
 64 -171 66 -142 72 -111 c 0
 108 81 259 218 452 271 c 1
 362 318 287 369 255 369 c 0
 203 369 155 278 133 241 c 1
 80 272 l 1
 113 331 185 468 263 468 c 0
 327 468 501 317 670 280 c 1
 651 199 l 1
EndSplineSet
Colour: ffda6b
EndChar

StartChar: _.heh.fina
Encoding: 65545 -1 9
GlifName: _.heh.fina
Width: 706
VWidth: 1304
GlyphClass: 1
UnlinkRmOvrlpSave: 1
Flags: HMW
LayerCount: 2
Fore
SplineSet
651 199 m 1
 630 203 608 206 584 206 c 0
 567 206 550 205 532 202 c 1
 532 200 532 198 532 196 c 0
 532 102 562 100 706 100 c 1
 706 -0 l 1
 704 0 702 0 700 -0 c 0
 522 0 474 1 470 191 c 1
 328 154 192 49 150 -105 c 0
 142 -133 139 -164 139 -197 c 0
 139 -217 140 -236 143 -257 c 1
 200 -319 289 -337 382 -337 c 0
 473 -337 567 -320 638 -310 c 1
 649 -400 l 1
 565 -409 466 -423 373 -423 c 0
 208 -423 64 -381 64 -196 c 0
 64 -171 66 -142 72 -111 c 0
 108 81 259 218 452 271 c 1
 362 318 287 369 255 369 c 0
 203 369 155 278 133 241 c 1
 80 272 l 1
 113 331 185 468 263 468 c 0
 327 468 501 317 670 280 c 1
 651 199 l 1
EndSplineSet
Colour: ffda6b
EndChar

StartChar: _.heh.medi
Encoding: 65546 -1 10
GlifName: _.heh.medi
Width: 696
VWidth: 1304
GlyphClass: 1
UnlinkRmOvrlpSave: 1
Flags: HMW
LayerCount: 2
Fore
SplineSet
638 199 m 1
 624 201 608 205 591 205 c 0
 565 205 543 200 519 191 c 1
 519 189 l 2
 519 106 551 99 638 99 c 0
 655 99 674 100 696 100 c 1
 696 -0 l 1
 679 0 662 0 647 -0 c 0
 528 0 465 9 458 160 c 1
 347 100 252 0 112 -0 c 2
 0 -0 l 2
 -25 0 -50 24 -50 50 c 0
 -49 76 -25 100 0 100 c 2
 87 100 l 2
 261 100 343 194 467 256 c 1
 366 305 278 369 242 369 c 0
 190 369 142 278 120 241 c 1
 67 272 l 1
 100 331 172 468 250 468 c 0
 313 468 482 323 648 282 c 1
 658 282 l 1
 638 199 l 1
EndSplineSet
Colour: ffda6b
EndChar

StartChar: _.heh.init
Encoding: 65547 -1 11
GlifName: _.heh.init
Width: 722
VWidth: 1304
GlyphClass: 1
UnlinkRmOvrlpSave: 1
Flags: HMW
LayerCount: 2
Fore
SplineSet
638 199 m 1
 624 201 608 205 591 205 c 0
 543 205 506 186 458 160 c 0
 347 100 252 0 112 -0 c 2
 0 -0 l 2
 -25 0 -50 24 -50 50 c 0
 -49 76 -25 100 0 100 c 2
 87 100 l 2
 261 100 343 194 467 256 c 1
 366 305 278 369 242 369 c 0
 190 369 142 278 120 241 c 1
 67 272 l 1
 100 331 172 468 250 468 c 0
 313 468 482 323 648 282 c 1
 658 282 l 1
 638 199 l 1
EndSplineSet
Colour: ffda6b
EndChar

StartChar: _.sin.isol
Encoding: 65548 -1 12
GlifName: _.sin.isol
Width: 1321
VWidth: 1304
GlyphClass: 1
UnlinkRmOvrlpSave: 1
Flags: HMW
LayerCount: 2
Fore
SplineSet
916 72 m 1
 883 28 831 -9 761 -9 c 0
 760 -9 758 -9 757 -9 c 0
 731 -9 702 2 676 21 c 1
 677 6 677 -10 677 -24 c 0
 677 -70 672 -111 661 -137 c 0
 628 -216 602 -226 537 -253 c 0
 464 -284 391 -299 326 -299 c 0
 176 -299 64 -216 64 -52 c 0
 64 -17 69 22 80 65 c 0
 105 162 136 235 169 321 c 1
 227 299 l 1
 194 216 139 76 139 -29 c 0
 139 -154 233 -201 337 -201 c 0
 375 -201 415 -195 450 -185 c 0
 489 -173 535 -156 583 -131 c 1
 591 -104 594 -71 594 -33 c 0
 594 96 556 271 536 367 c 1
 624 384 l 1
 632 346 645 270 655 215 c 0
 672 136 716 91 759 91 c 0
 805 91 847 114 869 167 c 0
 892 220 910 307 924 372 c 1
 1001 357 l 1
 987 300 979 229 958 165 c 1
 1004 122 1048 80 1090 80 c 0
 1114 80 1137 93 1159 127 c 0
 1166 138 1169 162 1169 193 c 0
 1169 279 1147 416 1139 455 c 1
 1228 471 l 1
 1242 379 1257 293 1257 218 c 0
 1257 173 1251 132 1236 96 c 0
 1201 14 1149 -20 1092 -20 c 0
 1032 -20 968 17 916 72 c 1
EndSplineSet
Colour: ffda6b
EndChar

StartChar: _.sin.fina
Encoding: 65549 -1 13
GlifName: _.sin.fina
Width: 1384
VWidth: 1304
GlyphClass: 1
UnlinkRmOvrlpSave: 1
Flags: HMW
LayerCount: 2
Fore
SplineSet
921 81 m 1
 890 32 835 -9 761 -9 c 0
 760 -9 758 -9 757 -9 c 0
 731 -9 702 2 676 21 c 1
 677 6 677 -10 677 -24 c 0
 677 -70 672 -111 661 -137 c 0
 628 -216 602 -226 537 -253 c 0
 464 -284 391 -299 326 -299 c 0
 176 -299 64 -216 64 -52 c 0
 64 -17 69 22 80 65 c 0
 105 162 136 235 169 321 c 1
 227 299 l 1
 194 216 139 76 139 -29 c 0
 139 -154 233 -201 337 -201 c 0
 375 -201 415 -195 450 -185 c 0
 489 -173 535 -156 583 -131 c 1
 591 -104 594 -71 594 -33 c 0
 594 96 556 271 536 367 c 1
 624 384 l 1
 632 346 645 270 655 215 c 0
 672 136 716 91 759 91 c 0
 805 91 847 114 869 167 c 0
 892 220 910 307 924 372 c 1
 1001 357 l 1
 987 302 979 233 959 170 c 1
 987 142 1062 80 1103 80 c 0
 1108 80 1113 82 1117 84 c 0
 1173 117 1180 159 1180 221 c 0
 1180 229 1180 237 1180 245 c 2
 1180 400 l 1
 1260 400 l 1
 1260 271 l 2
 1260 180 1270 100 1384 100 c 1
 1384 -0 l 1
 1316 0 1255 13 1219 65 c 1
 1201 30 1154 -17 1102 -17 c 0
 1091 -17 1081 -15 1070 -11 c 0
 1028 5 960 49 921 81 c 1
EndSplineSet
Colour: ffda6b
EndChar

StartChar: _.sin.medi
Encoding: 65550 -1 14
GlifName: _.sin.medi
Width: 1065
VWidth: 1304
GlyphClass: 1
UnlinkRmOvrlpSave: 1
Flags: HMW
LayerCount: 2
Fore
SplineSet
602 81 m 1
 571 32 516 -9 441 -9 c 0
 375 -9 307 23 259 81 c 1
 200 11 90 0 0 -0 c 0
 -26 0 -50 24 -50 50 c 0
 -49 76 -25 100 0 100 c 0
 215 100 237 185 275 372 c 1
 353 357 l 1
 336 273 330 220 309 168 c 1
 338 118 390 91 440 91 c 0
 485 91 529 114 551 167 c 0
 574 220 591 307 605 372 c 1
 682 357 l 1
 668 302 661 233 641 170 c 1
 669 142 743 80 784 80 c 0
 789 80 794 82 798 84 c 0
 854 117 861 159 861 221 c 0
 861 229 861 237 861 245 c 2
 861 400 l 1
 941 400 l 1
 941 271 l 2
 941 180 951 100 1065 100 c 1
 1065 -0 l 1
 997 0 936 13 900 65 c 1
 881 30 834 -21 781 -21 c 0
 771 -21 761 -19 751 -15 c 0
 708 2 641 49 602 81 c 1
EndSplineSet
Colour: ffda6b
EndChar

StartChar: _.sin.init
Encoding: 65551 -1 15
GlifName: _.sin.init
Width: 1003
VWidth: 1304
GlyphClass: 1
UnlinkRmOvrlpSave: 1
Flags: HMW
LayerCount: 2
Fore
SplineSet
598 72 m 1
 565 27 512 -9 441 -9 c 0
 375 -9 307 23 259 81 c 1
 200 11 90 0 0 -0 c 0
 -26 0 -50 24 -50 50 c 0
 -49 76 -25 100 0 100 c 0
 215 100 237 185 275 372 c 1
 353 357 l 1
 336 273 330 220 309 168 c 1
 338 118 390 91 440 91 c 0
 485 91 529 114 551 167 c 0
 574 220 591 307 605 372 c 1
 682 357 l 1
 668 300 660 229 639 165 c 1
 685 122 729 80 771 80 c 0
 795 80 818 93 840 127 c 0
 847 138 850 162 850 193 c 0
 850 279 828 416 820 455 c 1
 909 471 l 1
 923 379 939 293 939 218 c 0
 939 173 933 132 918 96 c 0
 883 14 830 -20 773 -20 c 0
 713 -20 650 17 598 72 c 1
EndSplineSet
Colour: ffda6b
EndChar

StartChar: _.sad.isol
Encoding: 65552 -1 16
GlifName: _.sad.isol
Width: 1353
VWidth: 1304
GlyphClass: 1
UnlinkRmOvrlpSave: 1
Flags: HMW
LayerCount: 2
Fore
SplineSet
1008 445 m 0
 1140 445 1276 290 1288 166 c 1
 1288 165 l 2
 1289 161 1289 158 1289 154 c 0
 1289 111 1252 59 1215 48 c 0
 1078 4 977 -9 837 -10 c 0
 773 -10 718 4 675 43 c 1
 676 21 677 -1 677 -21 c 0
 677 -69 672 -110 661 -137 c 0
 628 -216 602 -226 537 -253 c 0
 464 -284 391 -299 326 -299 c 0
 176 -299 64 -216 64 -52 c 0
 64 -17 69 22 80 65 c 0
 105 162 135 235 168 321 c 1
 227 299 l 1
 194 217 138 77 138 -28 c 0
 138 -153 232 -201 337 -201 c 0
 375 -201 415 -195 450 -185 c 0
 489 -173 534 -156 583 -131 c 1
 591 -104 594 -71 594 -33 c 0
 594 96 556 271 536 367 c 1
 624 384 l 1
 631 345 644 283 655 214 c 1
 666 173 685 142 720 119 c 1
 771 222 899 445 1008 445 c 0
837 90 m 0
 973 90 1098 111 1209 149 c 1
 1209 149 l 1
 1210 150 l 1
 1189 257 1101 332 996 358 c 1
 904 321 821 188 772 97 c 1
 793 92 815 90 837 90 c 0
EndSplineSet
Colour: ffda6b
EndChar

StartChar: _.sad.fina
Encoding: 65553 -1 17
GlifName: _.sad.fina
Width: 1369
VWidth: 1304
GlyphClass: 1
UnlinkRmOvrlpSave: 1
Flags: HMW
LayerCount: 2
Fore
SplineSet
1008 445 m 0
 1140 445 1276 290 1288 166 c 1
 1288 165 l 2
 1289 162 1289 158 1289 154 c 0
 1289 140 1284 124 1277 109 c 1
 1307 100 1339 100 1369 100 c 1
 1369 -0 l 1
 1312 0 1261 11 1217 48 c 1
 1080 4 977 -9 837 -10 c 0
 773 -10 718 4 675 43 c 1
 676 21 677 -1 677 -21 c 0
 677 -69 672 -110 661 -137 c 0
 628 -216 602 -226 537 -253 c 0
 464 -284 391 -299 326 -299 c 0
 176 -299 64 -216 64 -52 c 0
 64 -17 69 22 80 65 c 0
 105 162 135 235 168 321 c 1
 227 299 l 1
 194 217 138 77 138 -28 c 0
 138 -153 232 -201 337 -201 c 0
 375 -201 415 -195 450 -185 c 0
 489 -173 534 -156 583 -131 c 1
 591 -104 594 -71 594 -33 c 0
 594 96 556 271 536 367 c 1
 624 384 l 1
 631 345 644 283 655 214 c 1
 666 173 685 142 720 119 c 1
 771 222 899 445 1008 445 c 0
837 90 m 0
 973 90 1098 111 1209 149 c 1
 1209 149 l 1
 1210 150 l 1
 1189 257 1101 332 996 358 c 1
 904 321 821 188 772 97 c 1
 793 92 815 90 837 90 c 0
EndSplineSet
Colour: ffda6b
EndChar

StartChar: _.sad.medi
Encoding: 65554 -1 18
GlifName: _.sad.medi
Width: 1005
VWidth: 1304
GlyphClass: 1
UnlinkRmOvrlpSave: 1
Flags: HMW
LayerCount: 2
Fore
SplineSet
466 -10 m 0
 342 -10 264 11 210 80 c 1
 166 30 100 0 0 -0 c 0
 -26 0 -50 24 -50 50 c 0
 -50 75 -26 100 -1 100 c 0
 166 100 195 222 223 373 c 1
 302 358 l 1
 293 288 281 221 260 167 c 1
 269 144 310 111 346 101 c 1
 389 190 528 445 644 445 c 0
 776 445 912 289 924 166 c 0
 924 164 924 161 924 159 c 0
 924 143 921 125 913 109 c 1
 941 100 975 100 1005 100 c 1
 1005 -0 l 1
 948 0 896 11 852 48 c 1
 764 18 600 -10 466 -10 c 0
405 92 m 1
 424 90 445 90 466 90 c 0
 592 90 738 119 845 150 c 1
 824 257 737 332 632 358 c 1
 537 321 453 182 405 92 c 1
EndSplineSet
Colour: ffda6b
EndChar

StartChar: _.sad.init
Encoding: 65555 -1 19
GlifName: _.sad.init
Width: 988
VWidth: 1304
GlyphClass: 1
UnlinkRmOvrlpSave: 1
Flags: HMW
LayerCount: 2
Fore
SplineSet
464 -10 m 0
 340 -10 264 11 210 80 c 1
 166 30 100 0 0 -0 c 0
 -26 0 -50 24 -50 50 c 0
 -50 75 -26 100 -1 100 c 0
 166 100 195 222 223 373 c 1
 302 358 l 1
 293 288 281 221 260 167 c 1
 269 144 310 111 346 101 c 1
 389 190 528 445 644 445 c 0
 776 445 912 289 924 166 c 0
 924 164 924 161 924 159 c 0
 924 115 892 61 852 48 c 0
 764 19 599 -10 464 -10 c 0
405 92 m 1
 424 90 445 90 466 90 c 0
 592 90 738 119 845 150 c 1
 824 257 737 332 632 358 c 1
 537 321 453 182 405 92 c 1
EndSplineSet
Colour: ffda6b
EndChar

StartChar: _.ta.isol
Encoding: 65556 -1 20
GlifName: _.ta.isol
Width: 878
VWidth: 1304
GlyphClass: 1
UnlinkRmOvrlpSave: 1
Flags: HMW
LayerCount: 2
Fore
SplineSet
64 -0 m 1
 64 100 l 1
 235 100 l 1
 244 116 251 133 260 149 c 0
 272 174 275 198 279 232 c 0
 285 300 286 388 286 473 c 2
 286 801 l 1
 368 801 l 1
 368 473 l 2
 368 411 361 350 347 293 c 1
 403 375 472 445 534 445 c 0
 665 445 800 289 812 166 c 0
 813 162 814 157 814 152 c 0
 814 111 779 59 740 48 c 0
 606 6 500 0 362 -0 c 2
 64 -0 l 1
298 100 m 1
 445 100 610 105 734 150 c 1
 713 257 626 332 521 358 c 1
 429 322 347 190 298 100 c 1
EndSplineSet
Colour: ffda6b
EndChar

StartChar: _.ta.fina
Encoding: 65557 -1 21
GlifName: _.ta.fina
Width: 894
VWidth: 1304
GlyphClass: 1
UnlinkRmOvrlpSave: 1
Flags: HMW
LayerCount: 2
Fore
SplineSet
64 -0 m 1
 64 100 l 1
 235 100 l 1
 244 116 251 133 260 149 c 0
 272 174 275 198 279 232 c 0
 285 300 286 388 286 473 c 2
 286 801 l 1
 368 801 l 1
 368 473 l 2
 368 411 361 350 347 293 c 1
 403 375 472 445 534 445 c 0
 665 445 800 289 812 166 c 0
 813 162 814 157 814 152 c 0
 814 138 810 123 803 109 c 1
 831 100 864 100 894 100 c 1
 894 -0 l 1
 837 0 785 11 741 48 c 1
 607 6 500 0 362 -0 c 2
 64 -0 l 1
298 100 m 1
 445 100 610 105 734 150 c 1
 713 257 626 332 521 358 c 1
 429 322 347 190 298 100 c 1
EndSplineSet
Colour: ffda6b
EndChar

StartChar: _.ta.medi
Encoding: 65558 -1 22
GlifName: _.ta.medi
Width: 717
VWidth: 1304
GlyphClass: 1
UnlinkRmOvrlpSave: 1
Flags: HMW
LayerCount: 2
Fore
SplineSet
-50 50 m 0
 -50 76 -26 100 -1 100 c 2
 58 100 l 1
 58 101 l 1
 67 117 74 133 83 149 c 0
 95 174 99 198 103 232 c 0
 109 300 109 388 109 473 c 2
 109 801 l 1
 191 801 l 1
 191 473 l 2
 191 411 184 350 170 293 c 1
 226 375 295 445 357 445 c 0
 488 445 624 289 636 166 c 0
 637 162 637 157 637 152 c 0
 637 138 633 123 626 109 c 1
 654 100 687 100 717 100 c 1
 717 -0 l 1
 660 0 608 11 564 48 c 1
 430 6 323 0 185 -0 c 2
 0 -0 l 2
 -26 0 -50 24 -50 50 c 0
121 100 m 1
 268 100 433 105 557 150 c 1
 536 257 449 332 344 358 c 1
 252 322 170 190 121 100 c 1
EndSplineSet
Colour: ffda6b
EndChar

StartChar: _.ta.init
Encoding: 65559 -1 23
GlifName: _.ta.init
Width: 701
VWidth: 1304
GlyphClass: 1
UnlinkRmOvrlpSave: 1
Flags: HMW
LayerCount: 2
Fore
SplineSet
-50 50 m 0
 -50 76 -26 100 -1 100 c 2
 58 100 l 1
 58 101 l 1
 67 117 74 133 83 149 c 0
 95 174 99 198 103 232 c 0
 109 300 109 388 109 473 c 2
 109 801 l 1
 191 801 l 1
 191 473 l 2
 191 411 184 350 170 293 c 1
 226 375 295 445 357 445 c 0
 488 445 624 289 636 166 c 0
 637 162 637 157 637 152 c 0
 637 111 602 59 563 48 c 0
 429 6 323 0 185 -0 c 2
 0 -0 l 2
 -26 0 -50 24 -50 50 c 0
121 100 m 1
 268 100 433 105 557 150 c 1
 536 257 449 332 344 358 c 1
 252 322 170 190 121 100 c 1
EndSplineSet
Colour: ffda6b
EndChar

StartChar: _.ein.isol
Encoding: 65560 -1 24
GlifName: _.ein.isol
Width: 635
VWidth: 1304
GlyphClass: 1
UnlinkRmOvrlpSave: 1
Flags: HMW
LayerCount: 2
Fore
SplineSet
64 265 m 0
 64 378 147 449 246 449 c 0
 268 449 291 446 314 438 c 0
 361 423 417 391 460 361 c 1
 426 309 l 1
 377 341 321 358 272 358 c 0
 207 358 156 328 156 263 c 0
 156 247 159 229 166 209 c 0
 178 172 205 129 244 81 c 1
 322 123 418 150 524 177 c 1
 550 81 l 1
 395 39 198 8 156 -159 c 0
 152 -175 151 -193 151 -213 c 0
 151 -227 152 -242 154 -257 c 1
 203 -312 286 -336 382 -336 c 0
 442 -336 503 -328 560 -321 c 1
 571 -410 l 1
 518 -416 452 -424 385 -424 c 0
 262 -424 138 -398 90 -288 c 0
 79 -260 76 -230 76 -195 c 0
 76 -95 110 -25 166 27 c 1
 93 117 64 198 64 265 c 0
EndSplineSet
Colour: ffda6b
EndChar

StartChar: _.ein.fina
Encoding: 65561 -1 25
GlifName: _.ein.fina
Width: 609
VWidth: 1304
GlyphClass: 1
UnlinkRmOvrlpSave: 1
Flags: HMW
LayerCount: 2
Fore
SplineSet
366 -337 m 0
 431 -337 486 -329 549 -323 c 1
 558 -411 l 1
 504 -418 443 -424 381 -424 c 0
 308 -424 235 -415 174 -390 c 0
 122 -368 72 -305 66 -248 c 0
 65 -234 64 -220 64 -206 c 0
 64 -64 144 23 226 90 c 1
 201 108 183 129 168 154 c 2
 96 266 l 2
 89 276 86 285 86 295 c 0
 86 315 94 334 102 353 c 0
 106 364 111 366 121 372 c 0
 190 397 278 425 366 425 c 0
 449 425 518 393 547 338 c 0
 557 317 565 298 565 277 c 0
 565 255 557 234 552 216 c 0
 547 204 535 191 525 184 c 0
 492 159 449 134 401 109 c 1
 442 102 484 100 530 100 c 2
 609 100 l 1
 609 -0 l 1
 560 -0 l 2
 480 0 386 12 306 45 c 1
 275 24 246 2 210 -37 c 0
 167 -86 139 -141 139 -214 c 0
 139 -228 140 -243 142 -259 c 1
 164 -284 190 -302 220 -313 c 0
 266 -330 316 -337 366 -337 c 0
499 257 m 1
 477 315 441 344 369 344 c 0
 339 344 307 338 278 332 c 0
 242 323 205 315 167 303 c 1
 211 235 l 2
 236 198 263 171 294 151 c 1
 367 179 436 216 499 257 c 1
EndSplineSet
Colour: ffda6b
EndChar

StartChar: _.ein.medi
Encoding: 65562 -1 26
GlifName: _.ein.medi
Width: 618
VWidth: 1304
GlyphClass: 1
UnlinkRmOvrlpSave: 1
Flags: HMW
LayerCount: 2
Fore
SplineSet
-50 50 m 0
 -49 75 -26 100 -1 100 c 2
 50 100 l 2
 100 100 152 107 202 119 c 1
 192 130 184 142 177 154 c 2
 105 266 l 2
 98 276 95 285 95 295 c 0
 95 316 104 333 110 353 c 0
 114 364 120 366 130 372 c 0
 199 397 287 425 375 425 c 0
 458 425 527 393 556 338 c 0
 566 317 574 298 574 277 c 0
 574 255 566 234 561 216 c 0
 556 204 544 191 534 184 c 0
 501 159 457 134 410 109 c 1
 449 102 494 100 540 100 c 2
 618 100 l 1
 618 -0 l 1
 568 -0 l 2
 481 0 375 14 291 56 c 1
 205 23 116 0 50 -0 c 2
 0 -0 l 2
 -25 0 -50 24 -50 50 c 0
508 257 m 1
 486 315 450 344 378 344 c 0
 348 344 315 338 286 332 c 0
 250 323 213 315 175 303 c 1
 220 235 l 2
 245 198 271 171 302 151 c 1
 375 179 445 216 508 257 c 1
EndSplineSet
Colour: ffda6b
EndChar

StartChar: _.ein.init
Encoding: 65563 -1 27
GlifName: _.ein.init
Width: 623
VWidth: 1304
GlyphClass: 1
UnlinkRmOvrlpSave: 1
Flags: HMW
LayerCount: 2
Fore
SplineSet
-50 50 m 0
 -49 75 -26 99 -1 100 c 1
 124 100 l 1
 96 146 81 196 81 246 c 0
 81 289 92 332 117 369 c 0
 158 429 215 451 274 451 c 0
 343 451 416 421 470 384 c 1
 434 309 l 1
 386 328 331 346 278 346 c 0
 243 346 209 338 178 316 c 1
 169 300 166 284 166 266 c 0
 166 210 202 149 232 109 c 1
 326 118 443 151 534 177 c 1
 559 80 l 1
 319 17 252 0 0 -0 c 1
 -25 1 -50 24 -50 50 c 0
EndSplineSet
Colour: ffda6b
EndChar

StartChar: _.feh.isol
Encoding: 65564 -1 28
GlifName: _.feh.isol
Width: 933
VWidth: 1304
GlyphClass: 1
UnlinkRmOvrlpSave: 1
Flags: HMW
LayerCount: 2
Fore
SplineSet
64 209 m 0
 64 281 95 359 131 427 c 1
 185 396 l 1
 161 356 135 293 135 237 c 0
 135 211 141 186 155 166 c 0
 202 102 312 80 429 80 c 0
 566 80 714 109 783 136 c 1
 784 154 787 181 787 201 c 0
 787 204 787 207 787 210 c 1
 755 204 698 195 643 195 c 0
 576 195 510 209 490 261 c 0
 480 287 476 314 476 341 c 0
 476 458 560 567 642 567 c 0
 819 567 869 352 869 215 c 0
 869 179 865 148 859 128 c 0
 852 92 821 48 789 36 c 0
 703 4 558 -21 424 -21 c 0
 328 -21 236 -8 177 24 c 0
 94 69 64 137 64 209 c 0
551 351 m 0
 551 324 558 299 571 292 c 0
 578 288 601 286 629 286 c 0
 685 286 761 292 779 294 c 1
 765 404 703 474 645 474 c 0
 611 474 579 450 559 397 c 0
 553 384 551 367 551 351 c 0
EndSplineSet
Colour: ffda6b
EndChar

StartChar: _.feh.fina
Encoding: 65565 -1 29
GlifName: _.feh.fina
Width: 977
VWidth: 1304
GlyphClass: 1
UnlinkRmOvrlpSave: 1
Flags: HMW
LayerCount: 2
Fore
SplineSet
698 31 m 1
 615 1 518 -16 404 -16 c 0
 235 -16 64 34 64 220 c 0
 64 295 97 369 130 431 c 1
 185 401 l 1
 151 339 135 288 135 246 c 0
 135 122 269 83 418 83 c 0
 470 83 529 86 574 97 c 1
 532 133 506 178 506 232 c 0
 506 387 634 500 719 500 c 0
 817 500 907 362 907 258 c 0
 907 242 905 228 901 214 c 1
 891 170 866 134 830 106 c 1
 856 102 881 100 907 100 c 2
 977 100 l 1
 977 -0 l 1
 909 -0 l 2
 836 0 762 10 698 31 c 1
583 243 m 0
 583 205 630 166 699 139 c 1
 757 160 805 190 826 236 c 1
 817 302 776 373 712 400 c 1
 648 380 600 323 584 252 c 0
 583 249 583 246 583 243 c 0
EndSplineSet
Colour: ffda6b
EndChar

StartChar: _.feh.medi
Encoding: 65566 -1 30
GlifName: _.feh.medi
Width: 556
VWidth: 1304
GlyphClass: 1
UnlinkRmOvrlpSave: 1
Flags: HMW
LayerCount: 2
Fore
SplineSet
-50 50 m 0
 -50 76 -26 100 0 100 c 0
 39 100 90 102 140 108 c 1
 106 141 84 183 84 232 c 0
 84 387 213 500 297 500 c 0
 396 500 487 363 487 258 c 0
 487 242 485 228 481 214 c 0
 470 170 444 134 408 106 c 1
 434 102 460 100 487 100 c 2
 556 100 l 1
 556 -0 l 1
 487 -0 l 2
 409 0 331 13 265 36 c 1
 173 9 71 0 0 -0 c 0
 -26 0 -50 24 -50 50 c 0
161 243 m 0
 161 205 208 166 277 139 c 1
 335 160 383 190 405 236 c 1
 395 302 354 373 291 400 c 1
 226 380 178 323 162 252 c 0
 161 249 161 246 161 243 c 0
EndSplineSet
Colour: ffda6b
EndChar

StartChar: _.feh.init
Encoding: 65567 -1 31
GlifName: _.feh.init
Width: 529
VWidth: 1304
GlyphClass: 1
UnlinkRmOvrlpSave: 1
Flags: HMW
LayerCount: 2
Fore
SplineSet
-50 50 m 0
 -50 75 -26 100 -1 100 c 2
 151 100 l 2
 251 100 336 106 382 149 c 1
 383 164 384 179 384 193 c 0
 384 199 383 204 383 210 c 1
 351 204 295 195 240 195 c 0
 173 195 107 209 88 261 c 0
 78 288 73 315 73 342 c 0
 73 459 156 567 239 567 c 0
 415 567 465 350 465 213 c 0
 465 193 464 175 462 159 c 0
 452 17 273 0 151 -0 c 2
 0 -0 l 1
 -25 1 -50 24 -50 50 c 0
148 351 m 0
 148 324 155 299 168 292 c 0
 175 288 198 286 226 286 c 0
 282 286 358 292 376 294 c 1
 362 404 300 474 242 474 c 0
 208 474 176 450 156 397 c 0
 151 384 148 367 148 351 c 0
EndSplineSet
Colour: ffda6b
EndChar

StartChar: _.qaf.isol
Encoding: 65568 -1 32
GlifName: _.qaf.isol
Width: 785
VWidth: 1304
GlyphClass: 1
UnlinkRmOvrlpSave: 1
Flags: HMW
LayerCount: 2
Fore
SplineSet
64 -45 m 0
 64 -7 70 33 80 72 c 0
 105 169 133 242 169 329 c 1
 227 306 l 1
 189 212 171 164 148 64 c 0
 141 35 138 7 138 -19 c 0
 138 -91 166 -149 243 -177 c 0
 275 -188 311 -193 354 -193 c 0
 386 -193 438 -185 474 -176 c 0
 527 -164 585 -146 634 -121 c 1
 637 -91 639 -63 639 -35 c 0
 639 -21 639 -7 638 7 c 2
 638 17 l 1
 605 10 548 0 492 0 c 0
 425 0 362 14 343 66 c 0
 333 93 328 120 328 147 c 0
 328 264 412 373 494 373 c 0
 671 373 721 154 721 17 c 0
 721 12 721 7 721 2 c 0
 721 -31 719 -63 718 -93 c 0
 714 -134 672 -207 633 -223 c 0
 551 -256 424 -293 334 -293 c 0
 223 -293 123 -252 82 -147 c 0
 70 -115 64 -81 64 -45 c 0
403 159 m 0
 403 131 410 104 423 97 c 0
 429 94 449 93 475 93 c 0
 531 93 612 98 631 101 c 1
 617 211 554 281 496 281 c 0
 462 281 430 257 410 204 c 0
 405 191 403 175 403 159 c 0
EndSplineSet
Colour: ffda6b
EndChar

StartChar: _.qaf.fina
Encoding: 65569 -1 33
GlifName: _.qaf.fina
Width: 782
VWidth: 1304
GlyphClass: 1
UnlinkRmOvrlpSave: 1
Flags: HMW
LayerCount: 2
Fore
SplineSet
64 -45 m 0
 64 -7 70 33 80 72 c 0
 105 169 133 242 169 329 c 1
 227 306 l 1
 189 212 171 164 148 64 c 0
 141 35 138 7 138 -19 c 0
 138 -91 166 -149 243 -177 c 0
 275 -188 311 -193 354 -193 c 0
 386 -193 438 -185 474 -176 c 0
 527 -164 585 -146 634 -121 c 1
 637 -91 639 -63 639 -35 c 0
 639 -21 639 -7 638 7 c 2
 638 17 l 1
 605 10 548 0 492 0 c 0
 425 0 362 14 343 66 c 0
 333 93 328 120 328 147 c 0
 328 264 412 373 494 373 c 0
 638 373 698 228 714 100 c 1
 782 100 l 1
 782 -0 l 1
 721 -0 l 1
 721 -32 719 -65 718 -93 c 0
 714 -134 672 -207 633 -223 c 0
 551 -256 424 -293 334 -293 c 0
 223 -293 123 -252 82 -147 c 0
 70 -115 64 -81 64 -45 c 0
403 159 m 0
 403 131 410 104 423 97 c 0
 429 94 449 93 475 93 c 0
 531 93 612 98 631 101 c 1
 617 211 554 281 496 281 c 0
 462 281 430 257 410 204 c 0
 405 191 403 175 403 159 c 0
EndSplineSet
Colour: ffda6b
EndChar

StartChar: _.kaf.isol.fa
Encoding: 65570 -1 34
GlifName: _.kaf.isol.fa
Width: 989
VWidth: 1304
GlyphClass: 1
UnlinkRmOvrlpSave: 1
Flags: HMW
LayerCount: 2
Fore
SplineSet
64 232 m 0
 64 308 100 392 131 444 c 1
 184 413 l 1
 159 365 136 304 136 250 c 0
 136 161 222 121 301 106 c 0
 335 99 379 96 424 96 c 0
 490 96 560 103 613 112 c 0
 679 124 748 143 808 175 c 1
 772 281 651 375 556 428 c 0
 535 439 516 448 499 455 c 1
 515 560 l 1
 625 640 768 704 906 738 c 1
 925 658 l 1
 806 627 680 577 574 511 c 1
 654 478 762 392 815 322 c 0
 840 290 860 251 865 212 c 0
 866 202 866 190 864 178 c 0
 859 147 841 100 815 80 c 0
 719 9 515 -3 391 -3 c 0
 315 -3 238 8 178 40 c 0
 114 76 64 139 64 232 c 0
EndSplineSet
Colour: ffda6b
EndChar

StartChar: _.kaf.isol.ar
Encoding: 65571 -1 35
GlifName: _.kaf.isol.ar
Width: 929
VWidth: 1304
GlyphClass: 1
UnlinkRmOvrlpSave: 1
Flags: HMW
LayerCount: 2
Fore
SplineSet
64 217 m 0
 64 267 76 327 102 400 c 0
 104 406 113 409 118 407 c 2
 153 393 l 2
 158 391 163 384 159 373 c 0
 142 328 135 289 135 256 c 0
 135 138 238 100 369 100 c 0
 371 100 372 100 374 100 c 0
 540 100 682 134 792 172 c 1
 776 700 l 2
 776 707 776 713 776 718 c 0
 776 752 784 762 853 800 c 0
 860 800 865 798 865 789 c 2
 865 200 l 2
 865 121 853 99 753 65 c 0
 647 31 546 -1 358 -1 c 0
 199 -1 64 47 64 217 c 0
EndSplineSet
Colour: ffda6b
EndChar

StartChar: _.kaf.fina.fa
Encoding: 65572 -1 36
GlifName: _.kaf.fina.fa
Width: 1025
VWidth: 1304
GlyphClass: 1
UnlinkRmOvrlpSave: 1
Flags: HMW
LayerCount: 2
Fore
SplineSet
409 -17 m 0
 238 -17 64 36 64 219 c 0
 64 293 94 371 130 432 c 1
 184 401 l 1
 150 338 135 288 135 246 c 0
 135 125 265 85 432 85 c 0
 557 85 670 107 769 173 c 1
 769 178 l 1
 703 289 629 398 513 464 c 1
 529 567 l 1
 645 651 771 705 919 747 c 1
 939 667 l 1
 823 637 686 581 585 516 c 1
 756 429 864 163 895 130 c 0
 925 100 952 100 990 100 c 2
 1025 100 l 1
 1025 -0 l 1
 990 -0 l 2
 873 0 854 25 800 120 c 1
 783 81 l 1
 753 59 719 40 685 28 c 0
 619 3 514 -17 409 -17 c 0
EndSplineSet
Colour: ffda6b
EndChar

StartChar: _.kaf.fina.ar
Encoding: 65573 -1 37
GlifName: _.kaf.fina.ar
Width: 1058
VWidth: 1304
GlyphClass: 1
UnlinkRmOvrlpSave: 1
Flags: HMW
LayerCount: 2
Fore
SplineSet
64 217 m 0
 64 267 76 327 102 400 c 0
 104 406 113 409 118 407 c 2
 153 393 l 2
 158 391 163 384 159 373 c 0
 142 328 135 289 135 256 c 0
 135 138 238 100 369 100 c 0
 371 100 372 100 374 100 c 0
 540 100 682 134 792 172 c 1
 776 700 l 2
 776 707 776 713 776 718 c 0
 776 752 784 762 853 800 c 0
 860 800 865 798 865 789 c 2
 865 244 l 1
 901 160 950 101 1058 100 c 1
 1058 -0 l 1
 944 0 885 33 838 107 c 1
 821 92 794 80 753 65 c 0
 647 31 546 -1 358 -1 c 0
 199 -1 64 47 64 217 c 0
EndSplineSet
Colour: ffda6b
EndChar

StartChar: _.kaf.medi
Encoding: 65574 -1 38
GlifName: _.kaf.medi
Width: 537
VWidth: 1304
GlyphClass: 1
UnlinkRmOvrlpSave: 1
Flags: HMW
LayerCount: 2
Fore
SplineSet
-50 50 m 0
 -50 76 -26 100 0 100 c 0
 114 100 176 110 279 178 c 1
 213 289 141 378 25 444 c 1
 41 548 l 1
 157 630 283 684 431 727 c 1
 451 646 l 1
 335 618 197 561 96 496 c 1
 267 409 376 163 407 130 c 0
 437 100 464 100 502 100 c 2
 537 100 l 1
 537 -0 l 1
 502 -0 l 2
 383 0 365 27 308 127 c 1
 289 81 l 1
 240 22 75 0 0 -0 c 0
 -26 0 -50 24 -50 50 c 0
EndSplineSet
Colour: ffda6b
EndChar

StartChar: _.kaf.init
Encoding: 65575 -1 39
GlifName: _.kaf.init
Width: 524
VWidth: 1304
GlyphClass: 1
UnlinkRmOvrlpSave: 1
Flags: HMW
LayerCount: 2
Fore
SplineSet
-50 50 m 0
 -49 76 -25 100 0 100 c 2
 82 100 l 1
 195 101 284 125 316 150 c 1
 316 153 316 155 316 158 c 0
 316 252 231 403 32 492 c 1
 48 607 l 1
 183 705 286 733 440 785 c 1
 460 705 l 1
 339 674 215 623 109 557 c 1
 304 440 383 300 383 186 c 2
 383 184 l 1
 382 36 221 0 77 -0 c 2
 0 -0 l 2
 -25 0 -50 24 -50 50 c 0
EndSplineSet
Colour: ffda6b
EndChar

StartChar: _.kaf_hamze.isol.ar
Encoding: 65576 -1 40
GlifName: _.kaf_hamze.isol.ar
Width: 299
VWidth: 1304
GlyphClass: 1
UnlinkRmOvrlpSave: 1
Flags: HMW
LayerCount: 2
Fore
SplineSet
64 -20 m 1
 64 22 l 1
 69 22 75 21 80 21 c 0
 138 21 192 42 192 63 c 0
 192 73 178 84 146 92 c 0
 105 103 86 137 86 172 c 0
 86 215 116 259 173 259 c 0
 187 259 203 256 220 250 c 1
 220 205 l 1
 209 211 198 214 187 214 c 0
 155 214 127 193 127 171 c 0
 127 156 141 140 174 130 c 0
 213 118 235 93 235 66 c 0
 235 25 184 -20 70 -20 c 0
 68 -20 66 -20 64 -20 c 1
EndSplineSet
Colour: ffda6b
EndChar

StartChar: _.ghaf.isol
Encoding: 65577 -1 41
GlifName: _.ghaf.isol
Width: 989
VWidth: 0
GlyphClass: 1
UnlinkRmOvrlpSave: 1
Flags: HMW
LayerCount: 2
Fore
SplineSet
64 232 m 0
 64 308 100 392 131 444 c 1
 184 413 l 1
 159 365 136 304 136 250 c 0
 136 161 222 121 301 106 c 0
 335 99 379 96 424 96 c 0
 490 96 560 103 613 112 c 0
 679 124 748 143 808 175 c 1
 772 281 651 375 556 428 c 0
 535 439 516 448 499 455 c 1
 515 560 l 1
 625 640 768 704 906 738 c 1
 925 658 l 1
 806 627 680 577 574 511 c 1
 654 478 762 392 815 322 c 0
 840 290 860 251 865 212 c 0
 866 202 866 190 864 178 c 0
 859 147 841 100 815 80 c 0
 719 9 515 -3 391 -3 c 0
 315 -3 238 8 178 40 c 0
 114 76 64 139 64 232 c 0
531 697 m 1
 584 733 700 795 779 811 c 1
 790 770 l 1
 721 752 610 698 550 657 c 1
 531 697 l 1
EndSplineSet
Colour: ffda6b
EndChar

StartChar: _.ghaf.fina
Encoding: 65578 -1 42
GlifName: _.ghaf.fina
Width: 1025
VWidth: 0
GlyphClass: 1
Flags: HMW
LayerCount: 2
Fore
SplineSet
409 -17 m 0
 238 -17 64 36 64 219 c 0
 64 293 94 371 130 432 c 1
 184 401 l 1
 150 338 135 288 135 246 c 0
 135 125 265 85 432 85 c 0
 557 85 670 107 769 173 c 1
 769 178 l 1
 703 289 629 398 513 464 c 1
 529 567 l 1
 645 651 771 705 919 747 c 1
 939 667 l 1
 823 637 686 581 585 516 c 1
 756 429 864 163 895 130 c 0
 925 100 952 100 990 100 c 2
 1025 100 l 1
 1025 -0 l 1
 990 -0 l 2
 873 0 854 25 800 120 c 1
 783 81 l 1
 753 59 719 40 685 28 c 0
 619 3 514 -17 409 -17 c 0
530 697 m 1
 583 733 699 795 778 811 c 1
 789 770 l 1
 720 752 609 698 549 657 c 1
 530 697 l 1
EndSplineSet
Colour: ffda6b
EndChar

StartChar: _.lam.isol
Encoding: 65580 -1 44
GlifName: _.lam.isol
Width: 691
VWidth: 1304
GlyphClass: 1
UnlinkRmOvrlpSave: 1
Flags: HMW
LayerCount: 2
Fore
SplineSet
139 45 m 0
 139 -77 229 -127 327 -127 c 0
 415 -127 508 -91 545 -57 c 1
 545 800 l 1
 627 800 l 1
 627 40 l 2
 627 -31 614 -72 568 -134 c 0
 528 -188 429 -226 329 -226 c 0
 197 -226 64 -160 64 19 c 0
 64 54 70 94 81 139 c 0
 106 237 135 308 169 395 c 1
 227 373 l 1
 194 289 139 149 139 45 c 0
EndSplineSet
Colour: ffda6b
EndChar

StartChar: _.lam.fina
Encoding: 65581 -1 45
GlifName: _.lam.fina
Width: 768
VWidth: 1304
GlyphClass: 1
UnlinkRmOvrlpSave: 1
Flags: HMW
LayerCount: 2
Fore
SplineSet
64 -44 m 0
 64 -8 70 30 80 70 c 0
 107 171 135 238 168 327 c 1
 226 305 l 1
 189 207 139 83 139 -17 c 0
 139 -118 190 -195 354 -195 c 0
 414 -195 481 -156 534 -124 c 1
 545 -102 545 -53 545 -29 c 2
 545 800 l 1
 628 800 l 1
 628 251 l 2
 628 134 663 100 768 100 c 1
 768 -0 l 1
 718 0 667 6 628 31 c 1
 628 15 628 0 628 -13 c 0
 628 -86 623 -128 567 -202 c 0
 528 -255 410 -294 335 -294 c 0
 155 -294 64 -192 64 -44 c 0
EndSplineSet
Colour: ffda6b
EndChar

StartChar: _.lam.medi
Encoding: 65582 -1 46
GlifName: _.lam.medi
Width: 386
VWidth: 1304
GlyphClass: 1
UnlinkRmOvrlpSave: 1
Flags: HMW
LayerCount: 2
Fore
SplineSet
-50 50 m 0
 -49 76 -25 100 0 100 c 0
 46 100 161 117 161 149 c 2
 161 800 l 1
 245 800 l 1
 245 251 l 2
 245 133 283 100 386 100 c 1
 386 -0 l 1
 313 0 246 13 204 70 c 1
 166 18 68 0 0 -0 c 1
 -25 1 -50 24 -50 50 c 0
EndSplineSet
Colour: ffda6b
EndChar

StartChar: _.lam.init
Encoding: 65583 -1 47
GlifName: _.lam.init
Width: 308
VWidth: 1304
GlyphClass: 1
UnlinkRmOvrlpSave: 1
Flags: HMW
LayerCount: 2
Fore
SplineSet
-50 50 m 0
 -49 76 -25 100 0 100 c 0
 46 100 161 117 161 150 c 2
 161 800 l 1
 244 800 l 1
 244 157 l 1
 242 40 94 0 0 -0 c 0
 -25 0 -50 24 -50 50 c 0
EndSplineSet
Colour: ffda6b
EndChar

StartChar: _.mim.isol
Encoding: 65584 -1 48
GlifName: _.mim.isol
Width: 634
VWidth: 1304
GlyphClass: 1
UnlinkRmOvrlpSave: 1
Flags: HMW
LayerCount: 2
Fore
SplineSet
64 -85 m 0
 64 1 73 85 106 125 c 0
 126 148 139 160 170 165 c 1
 196 236 242 325 305 369 c 0
 326 384 349 391 372 391 c 0
 461 391 527 321 555 241 c 0
 565 213 570 177 570 140 c 0
 570 96 562 52 545 21 c 0
 543 12 508 -35 463 -35 c 0
 461 -35 460 -35 458 -35 c 0
 361 -26 241 59 161 71 c 1
 146 40 141 -12 141 -69 c 0
 141 -148 150 -235 154 -289 c 1
 75 -293 l 1
 71 -244 64 -164 64 -85 c 0
240 148 m 1
 278 137 279 129 353 98 c 0
 422 70 439 72 469 61 c 1
 483 89 486 116 486 149 c 0
 486 201 457 255 415 283 c 0
 400 293 386 297 373 297 c 0
 309 297 261 202 240 149 c 1
 240 148 l 1
EndSplineSet
Colour: ffda6b
EndChar

StartChar: _.mim.fina
Encoding: 65585 -1 49
GlifName: _.mim.fina
Width: 778
VWidth: 1304
GlyphClass: 1
UnlinkRmOvrlpSave: 1
Flags: HMW
LayerCount: 2
Fore
SplineSet
64 -91 m 0
 64 19 79 129 146 157 c 0
 153 161 161 163 171 165 c 1
 199 246 275 390 372 390 c 0
 568 390 549 100 778 100 c 1
 778 -0 l 1
 687 0 618 32 569 111 c 1
 563 48 533 -35 466 -35 c 0
 464 -35 461 -35 459 -35 c 0
 361 -28 241 58 162 70 c 1
 146 39 141 -14 141 -71 c 0
 141 -149 151 -236 155 -289 c 1
 75 -294 l 1
 72 -247 64 -169 64 -91 c 0
241 149 m 1
 314 117 390 75 469 61 c 1
 481 86 487 113 487 139 c 0
 487 222 431 296 372 296 c 0
 309 296 261 199 241 149 c 1
EndSplineSet
Colour: ffda6b
EndChar

StartChar: _.mim.medi
Encoding: 65586 -1 50
GlifName: _.mim.medi
Width: 782
VWidth: 1304
GlyphClass: 1
UnlinkRmOvrlpSave: 1
Flags: HMW
LayerCount: 2
Fore
SplineSet
174 79 m 1
 133 38 78 0 -4 -0 c 0
 -27 2 -50 25 -50 50 c 0
 -50 76 -26 100 0 100 c 0
 64 100 113 140 146 175 c 0
 204 236 247 317 312 369 c 0
 332 383 354 390 377 390 c 0
 394 390 412 388 428 383 c 0
 477 366 513 329 540 285 c 0
 583 215 625 148 702 114 c 0
 725 104 752 100 782 100 c 1
 782 -0 l 1
 678 0 618 40 574 111 c 1
 570 77 565 42 551 20 c 0
 536 -6 502 -39 468 -39 c 0
 458 -39 448 -38 436 -35 c 0
 394 -28 352 -12 313 4 c 0
 263 22 218 51 174 79 c 1
473 59 m 1
 486 84 492 111 492 149 c 0
 492 165 488 182 482 199 c 0
 471 232 450 264 420 282 c 0
 406 292 392 295 377 295 c 0
 344 295 325 272 306 250 c 0
 282 221 257 182 234 150 c 1
 302 100 376 70 473 59 c 1
EndSplineSet
Colour: ffda6b
EndChar

StartChar: _.mim.init
Encoding: 65587 -1 51
GlifName: _.mim.init
Width: 645
VWidth: 1304
GlyphClass: 1
UnlinkRmOvrlpSave: 1
Flags: HMW
LayerCount: 2
Fore
SplineSet
-50 50 m 0
 -49 76 -25 100 0 100 c 0
 183 100 241 392 389 392 c 0
 411 392 436 385 463 370 c 0
 546 322 581 227 581 141 c 0
 581 46 540 -39 474 -39 c 0
 472 -39 469 -38 467 -38 c 0
 378 -31 255 27 180 80 c 1
 130 31 74 0 0 -0 c 0
 -25 0 -50 24 -50 50 c 0
239 150 m 1
 313 97 391 69 478 59 c 1
 491 86 497 114 497 140 c 0
 497 225 438 296 383 296 c 0
 370 296 358 292 346 284 c 0
 305 254 270 193 239 150 c 1
EndSplineSet
Colour: ffda6b
EndChar

StartChar: _.nun.isol
Encoding: 65588 -1 52
GlifName: _.nun.isol
Width: 742
VWidth: 1305
GlyphClass: 1
UnlinkRmOvrlpSave: 1
Flags: HMW
LayerCount: 2
Fore
SplineSet
138 -22 m 0
 138 -146 233 -194 336 -194 c 0
 375 -194 414 -187 449 -177 c 0
 490 -166 534 -148 582 -123 c 1
 590 -96 593 -63 593 -25 c 0
 593 104 556 278 537 374 c 1
 624 390 l 1
 642 307 678 119 678 -15 c 0
 678 -62 673 -103 662 -129 c 0
 628 -208 602 -218 538 -246 c 0
 464 -277 392 -293 327 -293 c 0
 176 -293 64 -210 64 -45 c 0
 64 -10 69 29 80 71 c 0
 105 168 136 243 169 329 c 1
 226 306 l 1
 193 223 138 83 138 -22 c 0
EndSplineSet
Colour: ffda6b
EndChar

StartChar: _.nun.fina
Encoding: 65589 -1 53
GlifName: _.nun.fina
Width: 792
VWidth: 1413
GlyphClass: 1
UnlinkRmOvrlpSave: 1
Flags: HMW
LayerCount: 2
Fore
SplineSet
139 -29 m 0
 139 -154 233 -201 337 -201 c 0
 375 -201 415 -195 450 -185 c 0
 491 -173 535 -156 583 -131 c 1
 591 -104 594 -71 594 -33 c 0
 594 96 556 271 537 367 c 1
 624 384 l 1
 631 348 643 293 653 230 c 0
 659 196 695 100 792 100 c 1
 792 -0 l 1
 745 0 707 14 675 45 c 1
 677 20 678 -4 678 -26 c 0
 678 -72 674 -111 663 -137 c 0
 629 -216 602 -226 537 -253 c 0
 464 -284 391 -299 326 -299 c 0
 176 -299 64 -216 64 -52 c 0
 64 -17 69 22 80 65 c 0
 105 162 136 235 169 321 c 1
 227 299 l 1
 194 216 139 76 139 -29 c 0
EndSplineSet
Colour: ffda6b
EndChar

StartChar: _.vav.isol
Encoding: 65590 -1 54
GlifName: _.vav.isol
Width: 620
VWidth: 1304
GlyphClass: 1
UnlinkRmOvrlpSave: 1
Flags: HMW
LayerCount: 2
Fore
SplineSet
157 146 m 0
 157 271 242 396 340 396 c 0
 473 396 556 235 556 82 c 0
 556 10 537 -61 497 -111 c 0
 445 -175 317 -261 241 -261 c 0
 203 -261 101 -213 64 -196 c 1
 84 -154 l 1
 128 -174 162 -184 196 -184 c 0
 235 -184 272 -171 321 -143 c 0
 373 -113 450 -55 470 4 c 1
 435 1 391 -4 347 -4 c 0
 265 -4 183 12 164 86 c 0
 159 106 157 126 157 146 c 0
233 161 m 0
 233 136 238 112 250 104 c 0
 261 97 308 96 357 96 c 0
 406 96 457 97 475 98 c 1
 466 224 401 301 338 301 c 0
 301 301 264 274 241 215 c 0
 236 201 233 181 233 161 c 0
EndSplineSet
Colour: ffda6b
EndChar

StartChar: _.vav.fina
Encoding: 65591 -1 55
GlifName: _.vav.fina
Width: 629
VWidth: 1304
GlyphClass: 1
UnlinkRmOvrlpSave: 1
Flags: HMW
LayerCount: 2
Fore
SplineSet
64 -193 m 1
 84 -153 l 1
 128 -173 162 -183 195 -183 c 0
 234 -183 271 -170 321 -141 c 0
 373 -111 449 -53 470 6 c 1
 435 3 390 -1 346 -1 c 0
 263 -1 182 14 164 88 c 0
 160 104 158 123 158 142 c 0
 158 254 227 399 339 399 c 0
 484 399 550 221 555 100 c 1
 629 100 l 1
 629 -0 l 1
 547 -0 l 1
 522 -103 456 -165 364 -217 c 0
 312 -246 277 -258 243 -258 c 0
 193 -258 148 -231 64 -193 c 1
230 159 m 0
 230 138 236 120 249 107 c 1
 260 100 308 97 357 97 c 0
 406 97 457 100 475 101 c 1
 470 170 429 305 339 305 c 0
 283 305 230 222 230 159 c 0
EndSplineSet
Colour: ffda6b
EndChar

StartChar: _.dal.isol
Encoding: 65592 -1 56
GlifName: _.dal.isol
Width: 563
VWidth: 1304
GlyphClass: 1
UnlinkRmOvrlpSave: 1
Flags: HMW
LayerCount: 2
Fore
SplineSet
425 128 m 1
 406 283 319 378 204 442 c 1
 247 521 l 1
 355 462 442 376 480 253 c 0
 491 217 498 179 499 141 c 0
 499 91 469 52 433 37 c 0
 366 15 287 -12 201 -12 c 0
 114 -12 75 22 66 96 c 0
 65 118 64 140 64 165 c 2
 64 228 l 1
 126 228 l 1
 126 165 l 2
 126 119 135 87 172 82 c 0
 181 81 191 81 201 81 c 0
 236 81 276 88 309 96 c 0
 348 103 392 115 425 128 c 1
EndSplineSet
Colour: ffda6b
EndChar

StartChar: _.dal.fina
Encoding: 65593 -1 57
GlifName: _.dal.fina
Width: 596
VWidth: 1304
GlyphClass: 1
UnlinkRmOvrlpSave: 1
Flags: HMW
LayerCount: 2
Fore
SplineSet
64 98 m 1
 64 230 l 1
 126 230 l 1
 126 213 125 196 125 180 c 0
 125 125 132 80 193 80 c 0
 207 80 224 82 245 87 c 0
 295 99 347 127 389 155 c 1
 299 501 l 1
 387 523 l 1
 479 161 l 1
 500 107 541 100 596 100 c 1
 596 -0 l 1
 520 0 456 22 415 93 c 1
 393 56 404 68 363 42 c 0
 320 13 253 -10 194 -10 c 0
 128 -10 72 18 64 98 c 1
EndSplineSet
Colour: ffda6b
EndChar

StartChar: _.ree.isol
Encoding: 65594 -1 58
GlifName: _.ree.isol
Width: 527
VWidth: 1304
GlyphClass: 1
UnlinkRmOvrlpSave: 1
Flags: HMW
LayerCount: 2
Fore
SplineSet
64 -197 m 1
 84 -157 l 1
 127 -176 162 -186 192 -186 c 0
 254 -186 297 -143 357 -49 c 0
 374 -23 380 12 380 52 c 0
 380 120 362 198 352 251 c 2
 327 369 l 1
 416 386 l 1
 433 304 463 175 463 65 c 0
 463 13 456 -34 438 -70 c 0
 407 -133 314 -264 240 -264 c 0
 203 -264 101 -214 64 -197 c 1
EndSplineSet
Colour: ffda6b
EndChar

StartChar: _.ree.fina
Encoding: 65595 -1 59
GlifName: _.ree.fina
Width: 515
VWidth: 1304
GlyphClass: 1
UnlinkRmOvrlpSave: 1
Flags: HMW
LayerCount: 2
Fore
SplineSet
320 51 m 0
 320 148 290 257 275 345 c 1
 352 359 l 1
 373 241 l 2
 385 166 431 100 515 100 c 1
 515 -0 l 1
 468 0 428 15 396 47 c 1
 396 40 397 32 397 25 c 0
 397 -27 388 -59 357 -107 c 0
 324 -159 275 -220 222 -248 c 0
 207 -256 194 -259 181 -259 c 0
 164 -259 146 -253 124 -245 c 1
 64 -221 l 1
 82 -176 l 1
 100 -183 117 -187 133 -187 c 0
 157 -187 179 -178 201 -160 c 0
 239 -130 270 -88 297 -46 c 0
 314 -18 320 17 320 51 c 0
EndSplineSet
Colour: ffda6b
EndChar

StartChar: _.he8.isol
Encoding: 65596 -1 60
GlifName: _.he8.isol
Width: 529
VWidth: 1304
GlyphClass: 1
UnlinkRmOvrlpSave: 1
Flags: HMW
LayerCount: 2
Fore
SplineSet
64 150 m 0
 64 226 129 329 167 393 c 1
 134 412 l 1
 180 490 l 1
 319 408 463 331 465 143 c 0
 465 107 441 50 409 33 c 0
 374 13 304 -7 237 -7 c 0
 149 -7 64 28 64 150 c 0
138 166 m 0
 138 118 173 92 232 92 c 0
 284 92 352 107 391 127 c 1
 379 238 312 304 220 361 c 1
 198 324 138 232 138 166 c 0
EndSplineSet
Colour: ffda6b
EndChar

StartChar: _.he8.fina
Encoding: 65597 -1 61
GlifName: _.he8.fina
Width: 587
VWidth: 1304
GlyphClass: 1
UnlinkRmOvrlpSave: 1
Flags: HMW
LayerCount: 2
Fore
SplineSet
64 177 m 0
 64 254 105 355 235 425 c 0
 257 437 279 447 301 454 c 1
 279 541 l 1
 367 562 l 1
 470 161 l 1
 491 107 533 100 587 100 c 1
 587 -0 l 1
 500 0 431 30 394 117 c 1
 385 72 l 1
 324 58 270 40 214 40 c 0
 180 40 146 47 109 65 c 0
 85 76 64 121 64 177 c 0
143 193 m 0
 143 175 146 155 154 135 c 1
 170 129 188 127 207 127 c 0
 264 127 331 148 378 164 c 1
 319 384 l 1
 234 356 143 287 143 193 c 0
EndSplineSet
Colour: ffda6b
EndChar

StartChar: _.he8.medi
Encoding: 65598 -1 62
GlifName: _.he8.medi
Width: 518
VWidth: 1304
GlyphClass: 1
UnlinkRmOvrlpSave: 1
Flags: HMW
LayerCount: 2
Fore
SplineSet
-50 50 m 0
 -49 73 -27 98 -4 100 c 1
 98 100 l 1
 114 238 175 373 276 473 c 0
 282 478 288 481 294 481 c 0
 348 481 412 277 412 192 c 0
 412 183 411 174 409 168 c 0
 399 130 339 101 308 85 c 1
 357 98 413 100 469 100 c 0
 485 100 502 100 518 100 c 1
 518 -0 l 1
 420 6 l 1
 453 -15 467 -55 467 -98 c 0
 467 -169 428 -248 373 -255 c 0
 359 -257 347 -258 334 -258 c 0
 190 -258 103 -151 94 1 c 1
 -4 1 l 1
 -27 5 -50 25 -50 50 c 0
167 101 m 1
 233 112 290 144 333 197 c 1
 326 252 302 331 275 380 c 1
 220 310 172 193 167 101 c 1
173 4 m 1
 188 -110 240 -169 339 -169 c 0
 354 -169 370 -168 388 -165 c 1
 394 -146 397 -128 397 -109 c 0
 397 -51 368 1 312 4 c 1
 173 4 l 1
EndSplineSet
Colour: ffda6b
EndChar

StartChar: _.he8.init
Encoding: 65599 -1 63
GlifName: _.he8.init
Width: 762
VWidth: 1304
GlyphClass: 1
UnlinkRmOvrlpSave: 1
Flags: HMW
LayerCount: 2
Fore
SplineSet
-50 50 m 0
 -50 75 -26 100 -1 100 c 2
 50 100 l 2
 73 100 117 104 164 113 c 1
 132 144 112 179 112 221 c 0
 112 294 182 386 236 433 c 1
 221 442 205 451 189 460 c 1
 228 529 l 1
 549 346 698 287 698 137 c 0
 698 99 689 55 670 2 c 1
 652 -27 624 -38 592 -38 c 0
 584 -38 577 -37 569 -36 c 0
 500 -26 373 -2 271 45 c 1
 195 19 107 0 48 -0 c 2
 -1 -0 l 2
 -26 0 -50 24 -50 50 c 0
306 379 m 1
 251 347 201 299 181 230 c 1
 195 196 232 166 280 140 c 1
 339 158 365 177 394 219 c 1
 388 288 353 345 306 379 c 1
454 226 m 0
 454 170 427 123 383 96 c 1
 467 66 556 48 604 39 c 1
 613 68 618 94 618 117 c 0
 618 203 553 253 428 326 c 1
 442 300 449 283 449 282 c 0
 452 263 454 244 454 226 c 0
EndSplineSet
Colour: ffda6b
EndChar

StartChar: _.yeh.fina
Encoding: 65600 -1 64
GlifName: _.yeh.fina
Width: 732
VWidth: 1304
GlyphClass: 1
UnlinkRmOvrlpSave: 1
Flags: HMW
LayerCount: 2
Fore
SplineSet
64 -43 m 0
 64 -7 70 31 80 71 c 0
 106 169 134 240 170 327 c 1
 226 305 l 1
 188 207 139 83 139 -17 c 0
 139 -118 189 -195 353 -195 c 0
 439 -195 548 -137 605 -73 c 1
 569 0 453 0 371 -0 c 1
 387 100 l 1
 732 100 l 1
 732 -0 l 1
 656 -0 l 1
 670 -18 675 -38 675 -58 c 0
 675 -89 662 -120 645 -147 c 0
 596 -220 439 -294 333 -294 c 0
 154 -294 64 -192 64 -43 c 0
EndSplineSet
Colour: ffda6b
EndChar

StartChar: _.yeh.isol
Encoding: 65601 -1 65
GlifName: _.yeh.isol
Width: 769
VWidth: 1304
GlyphClass: 1
UnlinkRmOvrlpSave: 1
Flags: HMW
LayerCount: 2
Fore
SplineSet
138 44 m 0
 138 -74 226 -127 333 -127 c 0
 427 -127 532 -86 601 -9 c 1
 465 60 339 48 339 144 c 0
 339 176 353 218 384 280 c 0
 434 377 484 423 548 423 c 0
 592 423 643 402 705 363 c 1
 673 310 l 1
 634 333 601 346 572 346 c 0
 530 346 497 319 460 256 c 0
 442 225 424 195 424 172 c 0
 424 158 430 147 448 141 c 0
 491 125 614 89 642 68 c 0
 663 52 675 32 675 8 c 0
 675 4 675 -1 674 -5 c 0
 655 -123 482 -226 322 -226 c 0
 251 -226 182 -206 131 -157 c 0
 82 -109 64 -47 64 21 c 0
 64 148 127 293 168 395 c 1
 226 373 l 1
 193 290 138 148 138 44 c 0
EndSplineSet
Colour: ffda6b
EndChar

StartChar: _.hamze.isol
Encoding: 65602 -1 66
GlifName: _.hamze.isol
Width: 406
VWidth: 1304
GlyphClass: 2
Flags: HMW
LayerCount: 2
Fore
SplineSet
64 54 m 1
 139 89 l 1
 106 116 89 151 89 185 c 0
 89 240 133 289 219 289 c 0
 236 289 255 287 276 283 c 1
 265 229 l 1
 251 232 236 234 222 234 c 0
 186 234 154 222 130 191 c 1
 142 161 166 132 194 116 c 1
 319 173 l 1
 342 123 l 1
 86 5 l 1
 64 54 l 1
EndSplineSet
Colour: ffda6b
EndChar

StartChar: _.keshide.medi
Encoding: 65603 -1 67
GlifName: _.keshide.medi
Width: 215
VWidth: 1304
GlyphClass: 2
Flags: HMW
LayerCount: 2
Fore
SplineSet
-50 1 m 1
 -50 101 l 1
 215 101 l 1
 215 1 l 1
 -50 1 l 1
EndSplineSet
Colour: ffda6b
EndChar

StartChar: _.dot.1u
Encoding: 65604 -1 68
GlifName: _.dot.1u
Width: 0
VWidth: 1304
GlyphClass: 2
Flags: HMW
LayerCount: 2
Fore
SplineSet
0 75 m 1
 75 150 l 1
 149 75 l 1
 75 1 l 1
 0 75 l 1
EndSplineSet
Colour: ffda6b
EndChar

StartChar: _.dot.2u
Encoding: 65605 -1 69
GlifName: _.dot.2u
Width: 0
VWidth: 1304
GlyphClass: 2
UnlinkRmOvrlpSave: 1
Flags: HMW
LayerCount: 2
Fore
SplineSet
0 69 m 1
 70 139 l 1
 139 69 l 1
 70 -0 l 1
 0 69 l 1
170 69 m 1
 240 139 l 1
 309 69 l 1
 240 -0 l 1
 170 69 l 1
EndSplineSet
Colour: ffda6b
EndChar

StartChar: _.dot.3u
Encoding: 65606 -1 70
GlifName: _.dot.3u
Width: 0
VWidth: 1304
GlyphClass: 2
UnlinkRmOvrlpSave: 1
Flags: HMW
LayerCount: 2
Fore
SplineSet
0 70 m 1
 70 140 l 1
 139 70 l 1
 70 1 l 1
 0 70 l 1
90 191 m 1
 155 255 l 1
 219 191 l 1
 155 125 l 1
 90 191 l 1
170 70 m 1
 240 140 l 1
 309 70 l 1
 240 1 l 1
 170 70 l 1
EndSplineSet
Colour: ffda6b
EndChar

StartChar: _.dot.1d
Encoding: 65607 -1 71
GlifName: _.dot.1d
Width: 0
VWidth: 1304
GlyphClass: 2
Flags: HMW
LayerCount: 2
Fore
SplineSet
0 -75 m 1
 75 -0 l 1
 149 -75 l 1
 75 -149 l 1
 0 -75 l 1
EndSplineSet
Colour: ffda6b
EndChar

StartChar: _.dot.2d
Encoding: 65608 -1 72
GlifName: _.dot.2d
Width: 0
VWidth: 1304
GlyphClass: 2
UnlinkRmOvrlpSave: 1
Flags: HMW
LayerCount: 2
Fore
SplineSet
0 -70 m 1
 70 -1 l 1
 139 -70 l 1
 70 -141 l 1
 0 -70 l 1
170 -70 m 1
 239 -1 l 1
 309 -70 l 1
 239 -141 l 1
 170 -70 l 1
EndSplineSet
Colour: ffda6b
EndChar

StartChar: _.dot.3d
Encoding: 65609 -1 73
GlifName: _.dot.3d
Width: 0
VWidth: 1304
GlyphClass: 2
UnlinkRmOvrlpSave: 1
Flags: HMW
LayerCount: 2
Fore
SplineSet
0 -70 m 1
 70 -1 l 1
 139 -70 l 1
 70 -141 l 1
 0 -70 l 1
85 -185 m 1
 150 -120 l 1
 214 -185 l 1
 150 -249 l 1
 85 -185 l 1
170 -70 m 1
 239 -1 l 1
 309 -70 l 1
 239 -141 l 1
 170 -70 l 1
EndSplineSet
Colour: ffda6b
EndChar

StartChar: _.num.0
Encoding: 65611 -1 75
GlifName: _.num.0
Width: 539
VWidth: 1424
GlyphClass: 2
Flags: HMW
LayerCount: 2
Fore
SplineSet
75 298 m 0
 75 340 91 374 114 397 c 0
 145 432 175 464 218 482 c 0
 235 488 253 492 270 492 c 0
 348 492 385 437 425 397 c 0
 446 373 464 340 464 298 c 0
 464 223 410 179 369 143 c 0
 344 120 312 103 270 103 c 0
 229 103 194 121 170 143 c 0
 129 176 75 225 75 298 c 0
160 298 m 0
 160 258 197 227 220 208 c 0
 235 196 252 189 270 189 c 0
 311 189 336 222 359 247 c 0
 371 263 378 280 378 298 c 0
 378 338 342 368 320 388 c 0
 304 400 288 406 270 406 c 0
 252 406 235 400 220 388 c 0
 197 369 160 338 160 298 c 0
EndSplineSet
Colour: ffda6b
EndChar

StartChar: _.num.1
Encoding: 65612 -1 76
GlifName: _.num.1
Width: 299
VWidth: 1331
GlyphClass: 2
Flags: HMW
LayerCount: 2
Fore
SplineSet
75 785 m 1
 162 800 l 1
 221 464 224 359 224 -0 c 1
 135 -0 l 1
 135 330 130 471 75 785 c 1
EndSplineSet
Colour: ffda6b
EndChar

StartChar: _.num.2
Encoding: 65613 -1 77
GlifName: _.num.2
Width: 613
VWidth: 1331
GlyphClass: 2
Flags: HMW
LayerCount: 2
Fore
SplineSet
75 785 m 1
 162 800 l 1
 198 581 l 1
 209 532 271 468 339 468 c 0
 371 468 403 482 433 517 c 0
 441 526 444 552 444 586 c 0
 444 657 431 759 427 789 c 1
 523 800 l 1
 530 733 538 666 538 598 c 0
 538 577 537 556 535 534 c 0
 524 432 437 370 345 370 c 0
 299 370 253 385 213 418 c 1
 223 -0 l 1
 134 -0 l 1
 134 330 130 471 75 785 c 1
EndSplineSet
Colour: ffda6b
EndChar

StartChar: _.num.3
Encoding: 65614 -1 78
GlifName: _.num.3
Width: 909
VWidth: 1331
GlyphClass: 2
Flags: HMW
LayerCount: 2
Fore
SplineSet
75 785 m 1
 161 800 l 1
 176 720 190 584 229 527 c 0
 253 492 288 475 323 475 c 0
 369 475 414 504 438 561 c 0
 463 620 480 707 494 775 c 1
 576 759 l 1
 528 544 l 1
 568 501 609 465 651 465 c 0
 677 465 703 479 729 513 c 0
 736 523 739 550 739 584 c 0
 739 656 727 757 723 789 c 1
 817 800 l 1
 822 761 834 683 834 608 c 0
 834 541 825 476 793 443 c 0
 739 389 695 363 650 363 c 0
 601 363 551 395 484 452 c 1
 448 406 383 372 326 372 c 0
 278 372 244 387 212 420 c 1
 221 -0 l 1
 134 -0 l 1
 134 330 129 471 75 785 c 1
EndSplineSet
Colour: ffda6b
EndChar

StartChar: _.num.4.fa
Encoding: 65615 -1 79
GlifName: _.num.4.fa
Width: 800
VWidth: 1331
GlyphClass: 2
Flags: HMW
LayerCount: 2
Fore
SplineSet
75 724 m 1
 155 759 l 1
 162 743 171 718 182 682 c 0
 220 544 188 553 266 503 c 1
 259 526 255 553 255 581 c 0
 255 657 283 741 350 773 c 0
 390 792 425 800 458 800 c 0
 536 800 599 754 673 693 c 1
 631 642 l 1
 577 683 555 712 496 712 c 0
 439 712 408 699 359 672 c 1
 346 660 342 632 342 601 c 0
 342 538 358 499 383 459 c 1
 400 457 418 456 437 456 c 0
 524 456 626 478 707 492 c 1
 725 388 l 1
 634 372 536 349 442 349 c 0
 369 349 299 362 235 402 c 1
 251 274 258 138 258 -0 c 1
 171 -0 l 1
 171 202 154 549 75 724 c 1
EndSplineSet
Colour: ffda6b
EndChar

StartChar: _.num.5.fa
Encoding: 65617 -1 81
GlifName: _.num.5.fa
Width: 834
VWidth: 1331
GlyphClass: 2
Flags: HMW
LayerCount: 2
Fore
SplineSet
75 162 m 0
 75 199 83 239 97 280 c 0
 145 420 232 559 307 687 c 1
 257 721 l 1
 310 800 l 1
 506 668 759 490 759 231 c 0
 759 120 716 31 609 -11 c 0
 596 -16 583 -19 570 -19 c 0
 511 -19 451 31 404 74 c 1
 368 30 304 -9 247 -9 c 0
 126 -9 75 65 75 162 c 0
360 650 m 1
 305 562 152 302 152 203 c 0
 152 120 197 96 240 96 c 0
 268 96 297 106 310 117 c 0
 368 160 382 240 396 306 c 1
 478 290 l 1
 449 166 l 1
 497 116 534 86 570 86 c 0
 594 86 618 99 644 129 c 0
 659 147 665 176 665 208 c 0
 665 252 654 301 642 332 c 0
 593 460 471 571 360 650 c 1
EndSplineSet
Colour: ffda6b
EndChar

StartChar: _.num.6.fa
Encoding: 65619 -1 83
GlifName: _.num.6.fa
Width: 736
VWidth: 1331
GlyphClass: 2
Flags: HMW
LayerCount: 2
Fore
SplineSet
213 622 m 0
 213 520 312 466 390 437 c 1
 390 434 l 1
 475 504 524 527 618 575 c 1
 661 490 l 1
 479 395 385 330 257 148 c 0
 221 98 187 39 155 -25 c 1
 75 12 l 1
 144 145 222 266 313 363 c 1
 199 415 125 484 125 591 c 0
 125 611 128 633 133 656 c 0
 151 734 242 800 340 800 c 0
 357 800 373 798 390 794 c 1
 511 752 l 1
 485 692 l 1
 438 711 409 724 375 724 c 0
 315 724 257 682 217 642 c 1
 215 637 213 630 213 622 c 0
EndSplineSet
Colour: ffda6b
EndChar

StartChar: _.num.7
Encoding: 65621 -1 85
GlifName: _.num.7
Width: 748
VWidth: 1331
GlyphClass: 2
Flags: HMW
LayerCount: 2
Fore
SplineSet
75 753 m 1
 156 800 l 1
 241 650 338 364 374 194 c 1
 410 360 508 655 592 800 c 1
 673 753 l 1
 582 599 434 176 416 -3 c 1
 332 -3 l 1
 310 184 169 591 75 753 c 1
EndSplineSet
Colour: ffda6b
EndChar

StartChar: _.num.8
Encoding: 65622 -1 86
GlifName: _.num.8
Width: 747
VWidth: 1331
GlyphClass: 2
Flags: HMW
LayerCount: 2
Fore
SplineSet
75 44 m 1
 166 198 314 621 332 800 c 1
 415 800 l 1
 437 612 578 206 672 44 c 1
 592 -3 l 1
 507 146 410 432 374 603 c 1
 338 437 240 141 156 -3 c 1
 75 44 l 1
EndSplineSet
Colour: ffda6b
EndChar

StartChar: _.num.9
Encoding: 65623 -1 87
GlifName: _.num.9
Width: 629
VWidth: 1331
GlyphClass: 2
Flags: HMW
LayerCount: 2
Fore
SplineSet
75 500 m 0
 75 633 161 800 295 800 c 0
 480 800 520 591 521 442 c 0
 521 421 522 402 522 384 c 0
 522 367 522 351 522 336 c 0
 522 217 524 140 554 -3 c 1
 467 -20 l 1
 439 123 433 168 432 335 c 1
 402 330 358 326 312 326 c 0
 234 326 149 337 114 375 c 0
 87 404 75 450 75 500 c 0
161 505 m 0
 161 481 166 460 178 449 c 0
 196 432 251 426 307 426 c 0
 353 426 401 430 432 437 c 1
 432 523 426 646 337 689 c 0
 323 696 308 700 295 700 c 0
 216 700 161 582 161 505 c 0
EndSplineSet
Colour: ffda6b
EndChar

StartChar: _.sing.backslash
Encoding: 65624 -1 88
GlifName: _.sing.backslash
Width: 398
VWidth: 1197
GlyphClass: 2
Flags: HMW
LayerCount: 2
Fore
SplineSet
50 -22 m 1
 283 800 l 1
 348 800 l 1
 121 -22 l 1
 50 -22 l 1
EndSplineSet
Colour: ffda6b
EndChar

StartChar: _.sing.slash
Encoding: 65625 -1 89
GlifName: _.sing.slash
Width: 398
VWidth: 1197
GlyphClass: 2
Flags: HMW
LayerCount: 2
Fore
SplineSet
50 800 m 1
 116 800 l 1
 348 -22 l 1
 277 -22 l 1
 50 800 l 1
EndSplineSet
Colour: ffda6b
EndChar

StartChar: _.sing.tajob
Encoding: 65626 -1 90
GlifName: _.sing.tajob
Width: 264
VWidth: 1197
GlyphClass: 2
Flags: HMW
LayerCount: 2
Fore
SplineSet
50 86 m 1
 132 168 l 1
 214 86 l 1
 132 5 l 1
 50 86 l 1
80 800 m 1
 184 800 l 1
 167 232 l 1
 97 232 l 1
 80 800 l 1
EndSplineSet
Colour: ffda6b
EndChar

StartChar: _.sing.soal
Encoding: 65627 -1 91
GlifName: _.sing.soal
Width: 480
VWidth: 1304
GlyphClass: 2
Flags: HMW
LayerCount: 2
Fore
SplineSet
50 603 m 0
 50 625 54 650 64 676 c 0
 95 760 171 802 245 802 c 0
 327 802 407 750 423 647 c 1
 430 530 l 1
 351 530 l 1
 351 625 344 713 239 713 c 0
 195 713 136 673 136 608 c 0
 136 580 146 549 173 513 c 0
 258 401 282 384 282 226 c 1
 212 226 l 1
 212 256 l 2
 212 404 50 467 50 603 c 0
165 81 m 1
 247 162 l 1
 329 81 l 1
 247 -0 l 1
 165 81 l 1
EndSplineSet
Colour: ffda6b
EndChar

StartChar: _.sing.beezafeh
Encoding: 65628 -1 92
GlifName: _.sing.beezafeh
Width: 493
VWidth: 1352
GlyphClass: 2
Flags: HMW
LayerCount: 2
Fore
SplineSet
50 263 m 1
 50 335 l 1
 210 335 l 1
 210 495 l 1
 281 495 l 1
 281 335 l 1
 443 335 l 1
 443 263 l 1
 281 263 l 1
 281 103 l 1
 210 103 l 1
 210 263 l 1
 50 263 l 1
EndSplineSet
Colour: ffda6b
EndChar

StartChar: _.sing.menha
Encoding: 65629 -1 93
GlifName: _.sing.menha
Width: 500
VWidth: 0
GlyphClass: 2
Flags: HMW
LayerCount: 2
Fore
SplineSet
50 223 m 1
 50 305 l 1
 450 305 l 1
 450 223 l 1
 50 223 l 1
EndSplineSet
Colour: ffda6b
EndChar

StartChar: _.sing.khateh_tire
Encoding: 65630 -1 94
GlifName: _.sing.khateh_tire
Width: 499
VWidth: 0
GlyphClass: 2
Flags: HMW
LayerCount: 2
Fore
SplineSet
50 349 m 1
 50 445 l 1
 449 445 l 1
 449 349 l 1
 50 349 l 1
EndSplineSet
Colour: ffda6b
EndChar

StartChar: _.sing.virgul
Encoding: 65631 -1 95
GlifName: _.sing.virgul
Width: 258
VWidth: 1197
GlyphClass: 2
Flags: HMW
LayerCount: 2
Fore
SplineSet
130 64 m 1
 95 99 50 127 50 197 c 0
 53 270 103 326 147 370 c 1
 195 322 l 1
 175 302 155 282 142 256 c 0
 138 248 136 239 136 229 c 0
 136 202 164 183 180 167 c 0
 189 158 199 150 208 141 c 1
 130 64 l 1
EndSplineSet
Colour: ffda6b
EndChar

StartChar: _.sing.dot_virgul
Encoding: 65632 -1 96
GlifName: _.sing.dot_virgul
Width: 258
VWidth: 1304
GlyphClass: 2
Flags: HMW
LayerCount: 2
Fore
SplineSet
130 280 m 1
 93 313 50 344 50 413 c 0
 53 488 103 543 147 587 c 1
 194 539 l 1
 172 513 143 491 136 450 c 0
 133 432 142 420 152 410 c 0
 172 392 189 377 208 358 c 1
 130 280 l 1
52 136 m 1
 130 214 l 1
 206 136 l 1
 130 59 l 1
 52 136 l 1
EndSplineSet
Colour: ffda6b
EndChar

StartChar: _.sing.2noqte
Encoding: 65633 -1 97
GlifName: _.sing.2noqte
Width: 255
VWidth: 1352
GlyphClass: 2
Flags: HMW
LayerCount: 2
Fore
SplineSet
50 136 m 1
 128 214 l 1
 205 136 l 1
 128 59 l 1
 50 136 l 1
50 358 m 1
 128 436 l 1
 205 358 l 1
 128 280 l 1
 50 358 l 1
EndSplineSet
Colour: ffda6b
EndChar

StartChar: _.sing.noqte
Encoding: 65634 -1 98
GlifName: _.sing.noqte
Width: 255
VWidth: 1352
GlyphClass: 2
Flags: HMW
LayerCount: 2
Fore
SplineSet
50 106 m 1
 128 183 l 1
 205 106 l 1
 128 29 l 1
 50 106 l 1
EndSplineSet
Colour: ffda6b
EndChar

StartChar: _.sing.gheiomeh.right
Encoding: 65635 -1 99
GlifName: _.sing.gheiomeh.right
Width: 426
VWidth: 1352
GlyphClass: 2
Flags: HMW
LayerCount: 2
Fore
SplineSet
132 292 m 0
 132 187 171 113 226 48 c 1
 172 2 l 1
 135 46 105 94 83 143 c 0
 61 192 50 242 50 292 c 0
 50 411 112 506 172 580 c 1
 226 534 l 1
 172 470 132 395 132 292 c 0
327 11 m 1
 263 85 212 170 212 292 c 0
 212 413 264 498 327 571 c 1
 376 530 l 1
 343 491 321 451 307 412 c 0
 293 373 286 333 286 292 c 0
 286 250 293 209 307 170 c 0
 321 131 343 91 376 52 c 1
 327 11 l 1
EndSplineSet
Colour: ffda6b
EndChar

StartChar: _.sing.gheiomeh.left
Encoding: 65636 -1 100
GlifName: _.sing.gheiomeh.left
Width: 426
VWidth: 1352
GlyphClass: 2
Flags: HMW
LayerCount: 2
Fore
SplineSet
99 561 m 1
 160 486 214 402 214 282 c 0
 214 232 204 182 184 136 c 0
 164 90 136 45 99 1 c 1
 50 42 l 1
 103 108 139 176 139 282 c 0
 139 385 104 455 50 519 c 1
 99 561 l 1
294 282 m 0
 294 385 252 460 200 524 c 1
 254 570 l 1
 291 524 321 477 343 429 c 0
 365 380 376 331 376 282 c 0
 376 232 365 181 343 133 c 0
 321 84 291 36 254 -8 c 1
 200 38 l 1
 253 102 294 178 294 282 c 0
EndSplineSet
Colour: ffda6b
EndChar

StartChar: _.sing.parantez.right
Encoding: 65637 -1 101
GlifName: _.sing.parantez.right
Width: 329
VWidth: 1352
GlyphClass: 2
Flags: HMW
LayerCount: 2
Fore
SplineSet
50 301 m 0
 50 441 112 580 237 759 c 1
 279 719 l 1
 193 595 149 446 149 298 c 0
 149 150 193 2 279 -122 c 1
 238 -160 l 1
 113 20 50 161 50 301 c 0
EndSplineSet
Colour: ffda6b
EndChar

StartChar: _.sing.parantez.left
Encoding: 65638 -1 102
GlifName: _.sing.parantez.left
Width: 308
VWidth: 1352
GlyphClass: 2
Flags: HMW
LayerCount: 2
Fore
SplineSet
50 -65 m 1
 103 9 146 93 166 199 c 0
 172 231 176 265 176 299 c 0
 176 457 115 570 50 665 c 1
 107 705 l 1
 163 624 218 527 243 416 c 0
 253 377 258 338 258 299 c 0
 258 214 235 138 208 74 c 0
 181 11 144 -56 107 -106 c 1
 50 -65 l 1
EndSplineSet
Colour: ffda6b
EndChar

StartChar: _.sing.parantez_tazeeni.right
Encoding: 65639 -1 103
GlifName: _.sing.parantez_tazeeni.right
Width: 503
VWidth: 0
GlyphClass: 2
Flags: HMW
LayerCount: 2
Fore
SplineSet
50 342 m 1
 72 410 l 1
 123 393 l 2
 139 388 155 381 172 375 c 0
 179 371 187 367 196 365 c 1
 200 393 206 423 216 453 c 1
 216 513 l 1
 238 513 l 1
 269 589 316 669 379 759 c 1
 421 719 l 1
 347 612 305 488 294 361 c 1
 321 372 351 384 379 393 c 2
 429 410 l 1
 453 342 l 1
 401 326 l 2
 369 316 333 308 299 298 c 1
 322 272 344 244 365 216 c 2
 397 173 l 1
 339 132 l 1
 309 175 l 2
 307 180 302 183 300 187 c 1
 316 77 357 -28 421 -122 c 1
 380 -160 l 1
 288 -27 229 85 204 191 c 1
 202 186 198 180 194 175 c 2
 162 132 l 1
 105 173 l 1
 136 216 l 1
 154 239 174 263 192 285 c 1
 192 301 l 1
 161 308 132 316 102 326 c 2
 50 342 l 1
EndSplineSet
Colour: ffda6b
EndChar

StartChar: _.sing.koroshe.right
Encoding: 65641 -1 105
GlifName: _.sing.koroshe.right
Width: 276
VWidth: 1197
GlyphClass: 2
Flags: HMW
LayerCount: 2
Fore
SplineSet
50 -68 m 1
 50 785 l 1
 226 785 l 1
 226 714 l 1
 121 714 l 1
 121 4 l 1
 226 4 l 1
 226 -68 l 1
 50 -68 l 1
EndSplineSet
Colour: ffda6b
EndChar

StartChar: _.sing.koroshe.left
Encoding: 65642 -1 106
GlifName: _.sing.koroshe.left
Width: 276
VWidth: 1197
GlyphClass: 2
Flags: HMW
LayerCount: 2
Fore
SplineSet
50 4 m 1
 156 4 l 1
 156 714 l 1
 50 714 l 1
 50 785 l 1
 226 785 l 1
 226 -68 l 1
 50 -68 l 1
 50 4 l 1
EndSplineSet
Colour: ffda6b
EndChar

StartChar: _.sing.akolad.right
Encoding: 65643 -1 107
GlifName: _.sing.akolad.right
Width: 327
VWidth: 1197
GlyphClass: 2
Flags: HMW
LayerCount: 2
Fore
SplineSet
50 266 m 1
 50 336 l 1
 173 336 110 584 144 671 c 0
 166 726 215 727 264 727 c 0
 268 727 273 727 277 727 c 1
 277 657 l 1
 175 657 204 607 195 452 c 0
 193 399 182 322 125 301 c 1
 247 257 159 -11 225 -47 c 1
 277 -54 l 1
 277 -125 l 1
 196 -125 136 -120 132 -9 c 0
 132 -3 132 3 132 10 c 0
 132 29 133 51 133 74 c 0
 133 163 125 266 50 266 c 1
EndSplineSet
Colour: ffda6b
EndChar

StartChar: _.sing.akolad.left
Encoding: 65644 -1 108
GlifName: _.sing.akolad.left
Width: 325
VWidth: 1197
GlyphClass: 2
Flags: HMW
LayerCount: 2
Fore
SplineSet
50 -54 m 1
 152 -54 122 -4 131 151 c 0
 133 204 145 281 200 301 c 1
 78 345 168 614 100 650 c 1
 50 657 l 1
 50 727 l 1
 131 727 190 722 194 612 c 0
 194 606 194 600 194 593 c 0
 194 573 194 550 194 527 c 0
 194 438 201 336 275 336 c 1
 275 313 275 289 275 266 c 1
 153 266 217 19 183 -68 c 0
 161 -123 111 -125 62 -125 c 0
 58 -125 54 -125 50 -125 c 1
 50 -54 l 1
EndSplineSet
Colour: ffda6b
EndChar

StartChar: _.mark.maad
Encoding: 65645 -1 109
GlifName: _.mark.maad
Width: 0
VWidth: 1352
GlyphClass: 2
Flags: HMW
LayerCount: 2
Fore
SplineSet
0 26 m 1
 32 92 l 2
 44 119 64 138 89 138 c 0
 95 138 101 137 107 135 c 0
 141 125 180 122 221 122 c 0
 241 122 262 122 282 124 c 2
 320 128 l 1
 326 54 l 1
 288 50 l 2
 264 48 240 47 216 47 c 0
 171 47 126 51 86 65 c 1
 75 45 65 22 54 -0 c 1
 0 26 l 1
EndSplineSet
Colour: ffda6b
EndChar

StartChar: _.mark.fatheh
Encoding: 65646 -1 110
GlifName: _.mark.fatheh
Width: 0
VWidth: 2310
GlyphClass: 2
Flags: HMW
LayerCount: 2
Fore
SplineSet
0 52 m 1
 256 171 l 1
 278 120 l 1
 23 1 l 1
 0 52 l 1
EndSplineSet
Colour: ffda6b
EndChar

StartChar: _.mark.kasreh
Encoding: 65647 -1 111
GlifName: _.mark.kasreh
Width: 0
VWidth: 2384
GlyphClass: 2
Flags: HMW
LayerCount: 2
Fore
SplineSet
0 -118 m 1
 256 1 l 1
 278 -49 l 1
 23 -168 l 1
 0 -118 l 1
EndSplineSet
Colour: ffda6b
EndChar

StartChar: _.mark.zameh
Encoding: 65648 -1 112
GlifName: _.mark.zameh
Width: 0
VWidth: 2277
GlyphClass: 2
Flags: HMW
LayerCount: 2
Fore
SplineSet
112 190 m 0
 112 246 153 285 203 285 c 0
 247 283 279 242 279 194 c 0
 279 153 255 108 193 79 c 2
 23 -0 l 1
 0 49 l 1
 26 61 92 89 144 115 c 1
 126 138 112 161 112 190 c 0
194 226 m 0
 177 226 156 211 156 194 c 0
 156 176 172 155 187 138 c 1
 209 151 226 162 226 189 c 0
 226 209 213 226 194 226 c 0
EndSplineSet
Colour: ffda6b
EndChar

StartChar: _.mark.tanvin_fatheh
Encoding: 65649 -1 113
GlifName: _.mark.tanvin_fatheh
Width: 0
VWidth: 2280
GlyphClass: 2
Flags: HMW
LayerCount: 2
Fore
SplineSet
0 49 m 1
 256 168 l 1
 279 118 l 1
 23 -0 l 1
 0 49 l 1
0 170 m 1
 256 289 l 1
 279 240 l 1
 23 120 l 1
 0 170 l 1
EndSplineSet
Colour: ffda6b
EndChar

StartChar: _.mark.tanvin_kasreh
Encoding: 65650 -1 114
GlifName: _.mark.tanvin_kasreh
Width: 0
VWidth: 2413
GlyphClass: 2
Flags: HMW
LayerCount: 2
Fore
SplineSet
0 -120 m 1
 256 -1 l 1
 279 -51 l 1
 23 -170 l 1
 0 -120 l 1
0 -240 m 1
 256 -122 l 1
 279 -171 l 1
 23 -291 l 1
 0 -240 l 1
EndSplineSet
Colour: ffda6b
EndChar

StartChar: _.mark.tanvin_zameh
Encoding: 65651 -1 115
GlifName: _.mark.tanvin_zameh
Width: 0
VWidth: 2273
GlyphClass: 2
Flags: HMW
LayerCount: 2
Fore
SplineSet
129 191 m 0
 129 246 170 288 220 288 c 0
 264 286 297 245 297 197 c 0
 297 156 273 110 211 81 c 2
 42 2 l 1
 18 52 l 1
 28 57 45 63 66 72 c 1
 70 87 72 99 72 107 c 0
 72 120 68 125 59 125 c 0
 51 125 39 120 23 111 c 1
 0 151 l 1
 16 162 42 178 65 178 c 0
 87 178 107 157 107 121 c 0
 107 112 107 102 105 90 c 1
 124 99 143 108 161 117 c 1
 143 140 129 163 129 191 c 0
211 229 m 0
 194 229 174 213 174 196 c 0
 174 178 189 157 204 140 c 1
 226 153 243 164 243 191 c 0
 243 211 230 229 211 229 c 0
EndSplineSet
Colour: ffda6b
EndChar

StartChar: _.mark.tashdid
Encoding: 65652 -1 116
GlifName: _.mark.tashdid
Width: 0
VWidth: 1833
GlyphClass: 2
Flags: HMW
LayerCount: 2
Fore
SplineSet
81 5 m 0
 29 5 0 52 0 109 c 0
 0 121 1 135 2 149 c 0
 2 163 5 176 6 188 c 1
 52 184 l 1
 51 172 49 161 48 149 c 0
 48 138 47 126 47 114 c 0
 47 88 56 53 81 53 c 0
 141 53 144 123 156 173 c 0
 157 178 159 184 159 189 c 1
 199 181 l 1
 198 177 197 172 197 167 c 0
 196 162 195 157 195 152 c 0
 188 126 184 104 176 81 c 1
 190 69 210 49 230 49 c 0
 248 49 268 67 268 84 c 0
 268 119 266 151 262 184 c 1
 308 188 l 1
 310 164 314 134 314 109 c 2
 314 95 l 2
 314 90 313 86 313 81 c 0
 313 48 286 27 265 12 c 0
 254 5 242 0 231 -0 c 0
 220 0 208 3 196 12 c 0
 182 19 169 29 155 40 c 1
 138 23 114 5 81 5 c 0
EndSplineSet
Colour: ffda6b
EndChar

StartChar: _.mark.hamze
Encoding: 65653 -1 117
GlifName: _.mark.hamze
Width: 0
VWidth: 1841
GlyphClass: 2
Flags: HMW
LayerCount: 2
Fore
SplineSet
0 49 m 1
 74 84 l 1
 47 106 34 138 34 170 c 0
 34 228 75 286 147 286 c 0
 167 286 189 282 213 272 c 1
 202 223 l 1
 185 227 170 229 157 229 c 0
 107 229 84 201 84 171 c 0
 84 146 99 121 127 108 c 1
 256 168 l 1
 278 118 l 1
 23 -0 l 1
 0 49 l 1
EndSplineSet
Colour: ffda6b
EndChar

StartChar: _.mark.sakon
Encoding: 65654 -1 118
GlifName: _.mark.sakon
Width: 0
VWidth: 2099
GlyphClass: 2
Flags: HMW
LayerCount: 2
Fore
SplineSet
0 83 m 0
 0 125 27 167 81 167 c 0
 135 167 162 125 162 83 c 0
 162 41 135 -1 81 -1 c 0
 27 -1 0 41 0 83 c 0
43 81 m 0
 43 62 56 44 80 44 c 0
 104 44 116 62 116 81 c 0
 116 100 104 119 80 119 c 0
 56 119 43 100 43 81 c 0
EndSplineSet
Colour: ffda6b
EndChar

StartChar: _.mark.alef
Encoding: 65655 -1 119
GlifName: _.mark.alef
Width: 0
VWidth: 2091
GlyphClass: 2
Flags: HMW
LayerCount: 2
Fore
SplineSet
0 220 m 1
 50 239 l 1
 81 154 89 95 89 1 c 1
 41 1 l 1
 41 87 28 142 0 220 c 1
EndSplineSet
Colour: ffda6b
EndChar

StartChar: _.sing.momaiez
Encoding: 65656 -1 120
GlifName: _.sing.momaiez
Width: 375
VWidth: 1352
GlyphClass: 2
Flags: HMW
LayerCount: 2
Fore
SplineSet
50 -105 m 1
 152 9 218 173 248 385 c 0
 250 396 260 402 272 402 c 0
 288 402 311 398 325 389 c 1
 294 158 228 -10 130 -112 c 0
 120 -121 110 -125 99 -125 c 0
 87 -125 64 -119 50 -105 c 1
EndSplineSet
Colour: ffda6b
EndChar

StartChar: _.sing.hezare
Encoding: 65657 -1 121
GlifName: _.sing.hezare
Width: 222
VWidth: 1197
GlyphClass: 2
Flags: HMW
LayerCount: 2
Fore
SplineSet
50 900 m 1
 172 900 l 1
 130 700 l 1
 89 700 l 1
 50 900 l 1
EndSplineSet
Colour: ffda6b
EndChar

StartChar: _.sing.darsad
Encoding: 65658 -1 122
GlifName: _.sing.darsad
Width: 569
VWidth: 1197
GlyphClass: 2
Flags: HMW
LayerCount: 2
Fore
SplineSet
50 27 m 0
 50 42 54 55 61 64 c 0
 214 297 340 532 441 767 c 0
 447 782 458 790 470 790 c 0
 491 790 502 779 502 756 c 2
 502 752 l 1
 470 660 414 541 338 393 c 0
 262 247 187 125 112 33 c 0
 96 13 82 4 70 4 c 0
 56 4 50 12 50 27 c 0
68 661 m 1
 86 698 107 732 129 763 c 1
 147 753 241 703 241 677 c 0
 241 661 223 628 190 580 c 1
 119 629 78 656 68 661 c 1
345 132 m 1
 363 166 385 201 408 234 c 1
 482 191 519 160 519 139 c 0
 519 132 501 102 467 52 c 1
 399 98 360 125 345 132 c 1
EndSplineSet
Colour: ffda6b
EndChar

StartChar: _.sing.mosavi
Encoding: 65659 -1 123
GlifName: _.sing.mosavi
Width: 488
VWidth: 1197
GlyphClass: 2
Flags: HMW
LayerCount: 2
Fore
SplineSet
50 124 m 1
 50 194 l 1
 438 194 l 1
 438 124 l 1
 50 124 l 1
50 300 m 1
 50 370 l 1
 438 370 l 1
 438 300 l 1
 50 300 l 1
EndSplineSet
Colour: ffda6b
EndChar

StartChar: _.sing.star5par
Encoding: 65660 -1 124
GlifName: _.sing.5par
Width: 503
VWidth: 1197
GlyphClass: 2
Flags: HMW
LayerCount: 2
Fore
SplineSet
222 436 m 1
 220 470 216 506 216 540 c 2
 216 593 l 1
 288 593 l 1
 288 540 l 2
 288 506 283 470 281 436 c 1
 312 448 347 463 380 473 c 1
 430 490 l 1
 453 422 l 1
 401 406 l 2
 371 396 334 386 300 379 c 1
 322 353 346 324 366 296 c 2
 397 253 l 1
 341 212 l 1
 310 255 l 2
 290 282 269 314 252 343 c 1
 233 315 213 283 195 255 c 1
 162 212 l 1
 105 253 l 1
 137 296 l 2
 157 324 182 352 204 379 c 1
 170 386 133 396 102 406 c 2
 50 422 l 1
 72 490 l 1
 124 473 l 2
 156 462 190 447 222 436 c 1
EndSplineSet
Colour: ffda6b
EndChar

StartChar: _.beh_k.init
Encoding: 65661 -1 125
GlifName: _.beh_k.init
Width: 384
VWidth: 1197
GlyphClass: 2
UnlinkRmOvrlpSave: 1
Flags: HMW
LayerCount: 2
Fore
SplineSet
-50 50 m 0
 -49 75 -26 100 -1 100 c 2
 71 100 l 2
 119 100 195 115 231 149 c 1
 231 155 231 162 231 168 c 0
 231 264 222 363 202 457 c 1
 291 473 l 1
 310 386 320 300 320 211 c 0
 320 201 319 191 319 181 c 0
 317 44 188 0 72 -0 c 2
 0 -0 l 1
 -25 1 -50 24 -50 50 c 0
EndSplineSet
Colour: ffda6b
EndChar

StartChar: _.beh_k.medi
Encoding: 65662 -1 126
GlifName: _.beh_k.medi
Width: 470
VWidth: 1304
GlyphClass: 2
UnlinkRmOvrlpSave: 1
Flags: HMW
LayerCount: 2
Fore
SplineSet
-50 49 m 0
 -50 76 -27 100 -1 100 c 1
 -1 101 l 1
 4 101 8 101 13 101 c 0
 111 101 213 103 262 204 c 0
 288 257 298 314 310 373 c 1
 387 358 l 1
 360 231 l 2
 355 208 349 187 343 168 c 1
 369 111 407 100 470 100 c 1
 470 -0 l 1
 397 0 338 17 294 78 c 1
 232 7 134 0 -1 -0 c 0
 -25 0 -50 24 -50 49 c 0
EndSplineSet
Colour: ffda6b
EndChar

StartChar: _.sing.3noqte
Encoding: 65663 -1 127
GlifName: _.sing.3noqte
Width: 767
VWidth: 1304
GlyphClass: 2
Flags: HMW
LayerCount: 2
Fore
SplineSet
50 136 m 1
 128 214 l 1
 205 136 l 1
 128 59 l 1
 50 136 l 1
300 136 m 1
 377 214 l 1
 454 136 l 1
 377 59 l 1
 300 136 l 1
562 136 m 1
 640 214 l 1
 717 136 l 1
 640 59 l 1
 562 136 l 1
EndSplineSet
Colour: ffda6b
EndChar

StartChar: s.khat_tire
Encoding: 8208 8208 138
GlifName: s.khat_tire
Width: 504
VWidth: 0
GlyphClass: 2
Flags: HMW
LayerCount: 2
Fore
SplineSet
55 229 m 1
 55 307 l 1
 451 307 l 1
 451 229 l 1
 55 229 l 1
EndSplineSet
Colour: d7d7d7
EndChar

StartChar: s.zwj
Encoding: 8205 8205 174
GlifName: s.zwj
Width: 0
VWidth: 1331
GlyphClass: 2
Flags: HMW
LayerCount: 2
Fore
SplineSet
25 -327 m 1
 -25 -327 l 1
 -25 579 l 1
 -111 491 l 1
 -141 521 l 1
 -30 631 l 1
 -141 740 l 1
 -111 772 l 1
 0 660 l 1
 111 772 l 1
 141 740 l 1
 30 631 l 1
 141 521 l 1
 111 491 l 1
 25 579 l 1
 25 -327 l 1
EndSplineSet
Colour: d7d7d7
EndChar

StartChar: s.tagsim
Encoding: 247 247 182
GlifName: s.tagsim
Width: 564
VWidth: 1278
GlyphClass: 2
Flags: HMW
LayerCount: 2
Fore
SplineSet
59 352 m 1
 59 429 l 1
 506 429 l 1
 506 352 l 1
 59 352 l 1
234 204 m 1
 234 299 l 1
 330 299 l 1
 330 204 l 1
 234 204 l 1
234 482 m 1
 234 577 l 1
 330 577 l 1
 330 482 l 1
 234 482 l 1
EndSplineSet
Colour: d7d7d7
EndChar

StartChar: s.zwnj
Encoding: 8204 8204 215
GlifName: s.zwnj
Width: 0
VWidth: 1331
GlyphClass: 2
Flags: HMW
LayerCount: 2
Fore
SplineSet
-25 -308 m 1
 -25 710 l 1
 25 710 l 1
 25 -308 l 1
 -25 -308 l 1
EndSplineSet
Colour: d7d7d7
EndChar

StartChar: s.dotted_circle
Encoding: 9676 9676 220
GlifName: s.dotted_circle
Width: 576
VWidth: 1890
GlyphClass: 2
Flags: HMW
LayerCount: 2
Fore
SplineSet
60 181 m 0
 60 196 67 203 82 203 c 0
 97 203 104 196 104 182 c 2
 104 180 l 2
 104 166 97 159 82 159 c 0
 67 159 60 166 60 181 c 0
76 103 m 0
 76 118 83 126 98 126 c 0
 113 126 120 118 120 103 c 0
 120 88 113 80 98 80 c 0
 83 80 76 88 76 103 c 0
76 259 m 0
 76 274 83 282 98 282 c 0
 113 282 120 274 120 259 c 0
 120 244 113 236 99 236 c 0
 84 236 76 244 76 259 c 0
120 34 m 0
 120 49 127 56 142 57 c 0
 157 56 164 49 165 34 c 0
 164 19 157 12 142 12 c 0
 127 12 120 19 120 34 c 0
120 326 m 0
 120 341 127 348 142 349 c 0
 157 348 164 341 165 326 c 0
 164 311 157 304 142 304 c 0
 127 304 120 311 120 326 c 0
187 -8 m 0
 187 7 195 14 210 14 c 0
 225 14 233 7 233 -8 c 0
 233 -23 225 -30 210 -30 c 0
 195 -30 187 -23 187 -8 c 0
187 372 m 0
 187 387 195 394 210 394 c 0
 225 394 233 387 233 372 c 0
 233 357 225 350 210 350 c 0
 195 350 187 357 187 372 c 0
310 -26 m 0
 310 -41 303 -48 288 -48 c 0
 273 -48 266 -41 265 -26 c 0
 266 -11 273 -4 288 -3 c 0
 303 -4 310 -11 310 -26 c 0
288 410 m 0
 303 410 310 403 310 388 c 0
 310 373 303 366 288 365 c 0
 273 366 266 373 265 388 c 0
 266 403 273 410 288 410 c 0
344 -8 m 0
 344 7 352 14 367 14 c 0
 382 14 390 7 390 -8 c 0
 390 -22 382 -30 367 -31 c 0
 352 -30 344 -22 344 -8 c 0
344 372 m 0
 344 387 352 394 367 394 c 0
 382 394 390 387 390 372 c 0
 390 358 382 350 367 349 c 0
 352 350 344 358 344 372 c 0
412 34 m 0
 412 49 419 56 434 57 c 0
 449 56 456 49 456 34 c 0
 456 19 449 12 434 12 c 0
 419 12 412 19 412 34 c 0
412 326 m 0
 412 341 419 348 434 349 c 0
 449 348 456 341 456 326 c 0
 456 311 449 304 434 304 c 0
 419 304 412 311 412 326 c 0
456 103 m 0
 456 118 463 126 478 126 c 0
 492 126 500 118 501 103 c 0
 500 88 492 80 478 80 c 0
 463 80 456 88 456 103 c 0
456 259 m 0
 456 274 463 282 478 282 c 0
 492 282 500 274 501 259 c 0
 500 244 492 236 478 236 c 0
 463 236 456 244 456 259 c 0
472 181 m 0
 472 196 479 203 494 203 c 0
 509 203 516 196 517 182 c 2
 517 180 l 2
 516 166 509 159 494 159 c 0
 479 159 472 166 472 181 c 0
EndSplineSet
Colour: d7d7d7
EndChar

StartChar: s.figure_dash
Encoding: 8210 8210 224
GlifName: s.figure_dash
Width: 600
VWidth: 0
GlyphClass: 2
Flags: HMW
LayerCount: 2
Fore
SplineSet
55 229 m 1
 55 307 l 1
 547 307 l 1
 547 229 l 1
 55 229 l 1
EndSplineSet
Colour: d7d7d7
EndChar

StartChar: s.em_dash
Encoding: 8212 8212 263
GlifName: s.em_dash
Width: 1200
VWidth: 1175
GlyphClass: 2
Flags: HMW
LayerCount: 2
Fore
SplineSet
55 229 m 1
 55 307 l 1
 1147 307 l 1
 1147 229 l 1
 55 229 l 1
EndSplineSet
Colour: d7d7d7
EndChar

StartChar: s.bullet
Encoding: 8226 8226 278
GlifName: s.bullet
Width: 602
VWidth: 1331
GlyphClass: 2
Flags: HMW
LayerCount: 2
Fore
SplineSet
532 432 m 0
 532 369 509 315 464 270 c 0
 419 225 365 202 302 202 c 0
 245 202 194 223 147 266 c 0
 100 309 77 357 77 410 c 0
 77 483 99 542 142 585 c 0
 185 628 236 650 295 650 c 0
 368 650 426 630 468 591 c 0
 510 552 532 499 532 432 c 0
EndSplineSet
Colour: d7d7d7
EndChar

StartChar: s.en_dash
Encoding: 8211 8211 310
GlifName: s.en_dash
Width: 600
VWidth: 1175
GlyphClass: 2
Flags: HMW
LayerCount: 2
Fore
SplineSet
55 229 m 1
 55 307 l 1
 547 307 l 1
 547 229 l 1
 55 229 l 1
EndSplineSet
Colour: d7d7d7
EndChar

StartChar: s.horizontal_bar
Encoding: 8213 8213 316
GlifName: s.horizontal_bar
Width: 2400
VWidth: 1175
GlyphClass: 2
Flags: HMW
LayerCount: 2
Fore
SplineSet
55 229 m 1
 55 307 l 1
 2347 307 l 1
 2347 229 l 1
 55 229 l 1
EndSplineSet
Colour: d7d7d7
EndChar

StartChar: s.lrm
Encoding: 8206 8206 317
GlifName: s.lrm
Width: 0
VWidth: 1331
GlyphClass: 2
Flags: HMW
LayerCount: 2
Fore
SplineSet
-25 -308 m 1
 -25 676 l 1
 196 676 l 1
 106 759 l 1
 138 790 l 1
 280 651 l 1
 138 510 l 1
 106 544 l 1
 196 628 l 1
 22 628 l 1
 22 -308 l 1
 -25 -308 l 1
EndSplineSet
Colour: d7d7d7
EndChar

StartChar: s.rlm
Encoding: 8207 8207 346
GlifName: s.rlm
Width: 0
VWidth: 1331
GlyphClass: 2
Flags: HMW
LayerCount: 2
Fore
SplineSet
22 676 m 1
 22 -308 l 1
 -25 -308 l 1
 -25 628 l 1
 -196 628 l 1
 -108 544 l 1
 -138 510 l 1
 -280 651 l 1
 -138 790 l 1
 -108 759 l 1
 -196 676 l 1
 22 676 l 1
EndSplineSet
Colour: d7d7d7
EndChar

StartChar: _.mark.he_yeh
Encoding: 65664 -1 400
GlifName: _.mark.he_yeh
Width: 209
VWidth: 1304
GlyphClass: 1
UnlinkRmOvrlpSave: 1
Flags: HMW
LayerCount: 2
Fore
SplineSet
192 89 m 2
 192 90 l 2
 192 95 184 100 167 104 c 0
 153 107 144 109 141 109 c 0
 122 114 113 124 113 141 c 0
 113 176 135 207 178 234 c 0
 191 241 202 245 210 245 c 1
 210 200 l 1
 186 200 165 187 147 162 c 1
 145 156 l 2
 145 152 157 146 180 138 c 0
 205 130 218 124 221 120 c 0
 224 115 226 106 226 92 c 0
 226 77 219 62 206 49 c 0
 169 12 101 -6 0 -6 c 1
 17 42 l 1
 96 42 150 53 178 75 c 0
 187 82 192 87 192 89 c 2
EndSplineSet
EndChar

StartChar: uni0000
Encoding: 0 0 401
GlifName: uni0000
Width: 497
VWidth: 0
GlyphClass: 2
Flags: HMW
LayerCount: 2
Fore
SplineSet
59 -251 m 1
 59 709 l 1
 438 709 l 1
 438 -251 l 1
 59 -251 l 1
105 -181 m 1
 387 -181 l 1
 387 648 l 1
 105 648 l 1
 105 -181 l 1
EndSplineSet
EndChar

StartChar: _.ghaf.medi
Encoding: 65665 -1 402
GlifName: _.ghaf.medi
Width: 537
VWidth: 0
GlyphClass: 2
Flags: HMW
LayerCount: 2
Fore
SplineSet
-50 50 m 0
 -50 76 -26 100 0 100 c 0
 114 100 176 110 279 178 c 1
 213 289 141 398 25 464 c 1
 41 567 l 1
 157 651 283 705 431 747 c 1
 451 667 l 1
 335 637 197 581 96 516 c 1
 267 429 376 163 407 130 c 0
 437 100 464 100 502 100 c 2
 537 100 l 1
 537 -0 l 1
 502 -0 l 2
 383 0 365 27 308 127 c 1
 289 81 l 1
 240 22 75 0 0 -0 c 0
 -26 0 -50 24 -50 50 c 0
42 697 m 1
 95 733 211 795 290 811 c 1
 301 770 l 1
 232 752 121 698 61 657 c 1
 42 697 l 1
EndSplineSet
Colour: ffda6b
EndChar

StartChar: _.ghaf.init
Encoding: 65666 -1 403
GlifName: _.ghaf.init
Width: 524
VWidth: 0
GlyphClass: 2
Flags: HMW
LayerCount: 2
Fore
SplineSet
-50 50 m 0
 -49 76 -25 100 0 100 c 2
 82 100 l 1
 195 101 284 125 316 150 c 1
 316 153 316 155 316 158 c 0
 316 252 231 403 32 492 c 1
 48 607 l 1
 183 705 286 733 440 785 c 1
 460 705 l 1
 339 674 215 623 109 557 c 1
 304 440 383 300 383 186 c 2
 383 184 l 1
 382 36 221 0 77 -0 c 2
 0 -0 l 2
 -25 0 -50 24 -50 50 c 0
64 730 m 1
 121 777 242 833 312 850 c 1
 323 806 l 1
 258 791 141 732 83 694 c 1
 64 730 l 1
EndSplineSet
Colour: ffda6b
EndChar

StartChar: _.la.isol.fa
Encoding: 65667 -1 404
Width: 529
VWidth: 0
Flags: HMW
LayerCount: 2
Fore
SplineSet
64 666 m 1
 139 687 l 1
 196 507 218 373 224 186 c 1
 161 186 l 1
 156 329 111 529 64 666 c 1
87 59 m 1
 147 73 223 89 272 107 c 0
 351 137 382 170 383 252 c 1
 383 752 l 1
 465 752 l 1
 465 252 l 2
 465 211 457 176 436 145 c 0
 394 77 320 36 241 10 c 0
 198 -5 153 -16 106 -22 c 1
 87 59 l 1
EndSplineSet
Colour: ffda6b
EndChar

StartChar: _.la.fina.fa
Encoding: 65668 -1 405
Width: 606
VWidth: 0
Flags: HMW
LayerCount: 2
Fore
SplineSet
64 665 m 1
 139 687 l 1
 194 508 218 371 223 186 c 1
 161 186 l 1
 156 328 111 530 64 665 c 1
87 58 m 1
 208 86 379 97 383 251 c 1
 383 752 l 1
 465 752 l 1
 465 251 l 2
 465 135 501 100 606 100 c 1
 606 -0 l 1
 515 0 439 22 405 104 c 1
 334 29 208 -7 106 -22 c 1
 87 58 l 1
EndSplineSet
Colour: ffda6b
EndChar

StartChar: _.sing.alef_maad
Encoding: 65671 -1 408
Width: 345
VWidth: 1352
Flags: HMW
LayerCount: 2
Fore
SplineSet
50 11 m 1
 56 29 78 95 98 95 c 0
 115 95 130 70 200 70 c 0
 237 70 267 80 295 91 c 1
 295 50 l 1
 268 32 231 18 188 18 c 0
 155 18 123 25 100 36 c 1
 80 -0 l 1
 50 11 l 1
EndSplineSet
Colour: ffda6b
EndChar

StartChar: _.sing.star
Encoding: 65672 -1 409
Width: 503
VWidth: 1197
Flags: HMW
LayerCount: 2
Fore
SplineSet
222 436 m 1
 220 470 216 506 216 540 c 2
 216 593 l 1
 288 593 l 1
 288 540 l 2
 288 506 283 470 281 436 c 1
 312 448 347 463 380 473 c 1
 430 490 l 1
 453 422 l 1
 401 406 l 2
 371 396 334 386 300 379 c 1
 322 353 346 324 366 296 c 2
 397 253 l 1
 341 212 l 1
 310 255 l 2
 290 282 269 314 252 343 c 1
 233 315 213 283 195 255 c 1
 162 212 l 1
 105 253 l 1
 137 296 l 2
 157 324 182 352 204 379 c 1
 170 386 133 396 102 406 c 2
 50 422 l 1
 72 490 l 1
 124 473 l 2
 156 462 190 447 222 436 c 1
EndSplineSet
Colour: ffda6b
EndChar

StartChar: _.sing.zarb
Encoding: 65673 -1 410
Width: 445
VWidth: 1279
Flags: HMW
LayerCount: 2
Fore
SplineSet
50 377 m 1
 109 434 l 1
 230 314 l 1
 343 427 l 1
 395 377 l 1
 281 262 l 1
 392 152 l 1
 333 93 l 1
 222 204 l 1
 112 93 l 1
 60 145 l 1
 172 256 l 1
 50 377 l 1
EndSplineSet
Colour: ffda6b
EndChar

StartChar: _.sing.khateh_amoodi
Encoding: 65674 -1 411
Width: 190
VWidth: 1331
Flags: HMW
LayerCount: 2
Fore
SplineSet
50 -100 m 1
 50 300 l 1
 140 300 l 1
 140 -100 l 1
 50 -100 l 1
50 401 m 1
 50 801 l 1
 140 801 l 1
 140 401 l 1
 50 401 l 1
EndSplineSet
Colour: ffda6b
EndChar
